<?xml version="1.0" encoding="UTF-8"?>
<!DOCTYPE svg PUBLIC "-//W3C//DTD SVG 1.1//EN" "http://www.w3.org/Graphics/SVG/1.1/DTD/svg11.dtd">
<!-- Creator: CorelDRAW 2020 (64 Bit) -->
<svg xmlns="http://www.w3.org/2000/svg" xml:space="preserve" width="62.587mm" height="15.0779mm" version="1.1" style="shape-rendering:geometricPrecision; text-rendering:geometricPrecision; image-rendering:optimizeQuality; fill-rule:evenodd; clip-rule:evenodd"
viewBox="0 0 767.07 184.79"
 xmlns:xlink="http://www.w3.org/1999/xlink"
 xmlns:xodm="http://www.corel.com/coreldraw/odm/2003">
 <defs>
  <style type="text/css">
   <![CDATA[
    .fil2 {fill:#FEFEFE;fill-rule:nonzero}
    .fil0 {fill:#83C44C;fill-rule:nonzero}
    .fil1 {fill:#00AFEF;fill-rule:nonzero}
   ]]>
  </style>
 </defs>
 <g id="Camada_x0020_1">
  <metadata id="CorelCorpID_0Corel-Layer"/>
  <path class="fil0" d="M129.37 39.52c15,11.06 50.94,34.62 62.22,45.91 1.74,1.36 2.81,3.3 3.11,5.34 0.32,2.11 -0.17,4.35 -1.53,6.2l-0.14 0.18c-11.12,15.04 -21.73,29.57 -32.38,44.14 -10.07,13.79 -20.15,27.59 -29.35,40.06l-0.19 0.25c-1.36,1.71 -3.3,2.77 -5.33,3.09 -2.07,0.32 -4.23,-0.13 -6.02,-1.44 -5.49,-4.39 -11.03,-8.75 -16.53,-13.13 -1.79,-1.42 -2.9,-3.42 -3.21,-5.52 -0.31,-2.09 0.16,-4.28 1.52,-6.13l41.29 -55.98c0.68,-1.32 0.9,-2.4 0.74,-3.28 -0.15,-0.83 -0.68,-1.59 -1.5,-2.29l-35.6 -26.43c-1.85,-1.37 -2.98,-3.38 -3.29,-5.49 -0.32,-2.11 0.17,-4.35 1.54,-6.2l12.95 -17.51c1.37,-1.85 3.37,-2.98 5.49,-3.3 2.11,-0.32 4.35,0.17 6.21,1.53z"/>
  <path class="fil1" d="M65.43 145.27c-15,-11.06 -50.94,-34.62 -62.22,-45.91 -1.74,-1.36 -2.81,-3.3 -3.11,-5.34 -0.32,-2.11 0.17,-4.35 1.53,-6.2l0.12 -0.16c11.14,-15.07 21.79,-29.64 32.46,-44.25 10.04,-13.75 20.13,-27.57 29.29,-39.98l0.19 -0.25c1.36,-1.7 3.3,-2.77 5.33,-3.09 2.06,-0.32 4.23,0.12 6.02,1.44 5.49,4.39 11.03,8.75 16.54,13.13 1.78,1.42 2.9,3.42 3.21,5.52 0.31,2.1 -0.16,4.29 -1.51,6.13l-41.3 55.98c-0.68,1.31 -0.9,2.4 -0.74,3.28 0.15,0.85 0.71,1.63 1.57,2.35l35.52 26.38c1.85,1.37 2.98,3.38 3.29,5.49 0.31,2.12 -0.18,4.35 -1.54,6.21l-12.95 17.51c-1.37,1.85 -3.37,2.98 -5.49,3.3 -2.11,0.31 -4.36,-0.17 -6.21,-1.54z"/>
  <path class="fil2" d="M719.64 149.08l-8.36 -20.29 6.39 0c1.82,4.41 5.29,14.3 7.41,17.83l0.22 0.03 0.28 -0.04 0.07 -0.09 7.65 -17.73 6.48 0 -8.8 20.31c-0.52,1.2 -1.27,2.03 -2.25,2.57 -0.94,0.52 -2.09,0.75 -3.44,0.75 -1.38,0 -2.54,-0.24 -3.48,-0.77 -0.98,-0.55 -1.71,-1.39 -2.19,-2.57zm-16.09 -22.52l0 -5.85 6.05 0 0 6.7 -6.05 0 0 -0.85zm0 24.52l0 -22.29 6.01 0 0 23.14 -6.01 0 0 -0.86zm-17.37 -17.29l0 -5 2.92 0 0 -5.07 6.05 0 0 5.07 5.93 0 0 5.85 -5.93 0 0 9.29c0,0.97 0.14,1.59 0.45,1.92 0.29,0.31 0.81,0.43 1.58,0.43l3.82 0 0 5.65 -4.71 0c-2.46,0 -4.25,-0.53 -5.46,-1.88 -1.18,-1.31 -1.73,-3.34 -1.73,-6.37l0 -9.04 -2.92 0 0 -0.86zm-17.49 12.25l9.01 0 0.32 -0.02 -0 -3.38 -9.25 0c-0.92,0 -1.5,0.16 -1.83,0.45 -0.28,0.25 -0.4,0.67 -0.4,1.21 0,0.58 0.14,1.03 0.46,1.3 0.33,0.28 0.88,0.44 1.69,0.44zm-6.78 -12.25l0 -5 13.72 0c2.76,0 4.77,0.76 6.12,2.04 1.53,1.44 2.2,3.51 2.2,5.88l0 10.07c0,1.76 -0.26,3.01 -1.1,3.9 -0.83,0.87 -2.13,1.26 -4.18,1.26l-10.03 0c-2.68,0 -4.63,-0.66 -5.95,-1.86 -1.43,-1.3 -2.08,-3.19 -2.08,-5.53 0,-2.19 0.57,-3.94 1.91,-5.17 1.3,-1.2 3.3,-1.85 6.16,-1.85l9.34 0 0 -0.77c0,-0.65 -0.18,-1.21 -0.57,-1.56 -0.38,-0.34 -0.98,-0.55 -1.86,-0.55l-13.68 0 0 -0.86zm-18.15 -3.2c1.1,-1.22 2.76,-1.8 5.12,-1.8l9.66 0 0 5.85 -8.4 0c-0.71,0 -1.21,0.14 -1.49,0.42 -0.28,0.29 -0.42,0.78 -0.42,1.48l0 15.39 -6.01 0 0 -16.03c0,-2.37 0.46,-4.11 1.54,-5.31zm-12.09 5.29c-0.7,-0.85 -1.82,-1.24 -3.4,-1.24l-3.69 0c-1.6,0 -2.73,0.39 -3.42,1.23 -0.73,0.9 -1.08,2.38 -1.08,4.49 0,2.11 0.35,3.57 1.08,4.46 0.7,0.84 1.82,1.22 3.43,1.22l3.69 0c1.58,0 2.71,-0.38 3.41,-1.22 0.74,-0.89 1.1,-2.35 1.1,-4.46 0,-2.11 -0.35,-3.58 -1.1,-4.48zm-15.05 -4.02c1.78,-2.05 4.37,-3.07 7.54,-3.07l4.51 0c3.16,0 5.75,1.01 7.54,3.08 1.67,1.93 2.61,4.76 2.61,8.49 0,3.74 -0.94,6.57 -2.61,8.5 -1.79,2.06 -4.38,3.08 -7.54,3.08l-4.51 0c-3.18,0 -5.76,-1.01 -7.54,-3.07 -1.68,-1.93 -2.6,-4.76 -2.6,-8.5 0,-3.75 0.93,-6.58 2.6,-8.51zm-22.91 3.74c-0.61,0.67 -0.88,1.8 -0.88,3.43l0 7.02 8.2 0c1.6,0 2.73,-0.38 3.42,-1.22 0.74,-0.9 1.08,-2.35 1.08,-4.46 0,-2.11 -0.35,-3.58 -1.09,-4.48 -0.69,-0.85 -1.82,-1.24 -3.42,-1.24l-4.22 0c-1.49,0 -2.5,0.3 -3.09,0.95zm-4.71 -4.2c1.5,-1.74 3.7,-2.61 6.55,-2.61l5.92 0c3.16,0 5.74,1.01 7.51,3.07 1.67,1.93 2.6,4.76 2.6,8.5 0,3.74 -0.93,6.57 -2.6,8.5 -1.78,2.06 -4.35,3.07 -7.51,3.07l-8.64 0 0 8.6 -6.01 0 0 -21.72c0,-3.27 0.74,-5.74 2.18,-7.42zm-19.15 -0.81c1.09,-1.22 2.75,-1.8 5.12,-1.8l9.66 0 0 5.85 -8.41 0c-0.71,0 -1.2,0.14 -1.49,0.42 -0.28,0.29 -0.42,0.78 -0.42,1.48l0 15.39 -6.01 0 0 -16.03c0,-2.37 0.46,-4.11 1.54,-5.31zm-12.09 5.29c-0.7,-0.85 -1.82,-1.24 -3.4,-1.24l-3.69 0c-1.6,0 -2.72,0.39 -3.42,1.24 -0.74,0.9 -1.08,2.37 -1.08,4.48 0,2.11 0.34,3.57 1.08,4.46 0.69,0.84 1.82,1.22 3.42,1.22l3.69 0c1.58,0 2.71,-0.38 3.41,-1.22 0.74,-0.89 1.1,-2.35 1.1,-4.46 0,-2.11 -0.35,-3.58 -1.1,-4.48zm-15.05 -4.02c1.78,-2.05 4.37,-3.07 7.54,-3.07l4.5 0c3.16,0 5.75,1.01 7.54,3.08 1.67,1.93 2.61,4.76 2.61,8.49 0,3.74 -0.94,6.57 -2.61,8.5 -1.79,2.06 -4.38,3.08 -7.54,3.08l-4.5 0c-3.18,0 -5.76,-1.01 -7.54,-3.07 -1.68,-1.93 -2.6,-4.76 -2.6,-8.5 0,-3.74 0.93,-6.57 2.6,-8.51zm-26.68 -5.27c2.27,-2.52 5.61,-3.77 9.88,-3.77l11.45 0 0 6.5 -11.45 0c-2.38,0 -4.07,0.57 -5.12,1.8 -1.1,1.28 -1.61,3.33 -1.61,6.27 0,2.91 0.5,4.96 1.6,6.23 1.05,1.23 2.74,1.8 5.14,1.8l11.45 0 0 6.5 -11.45 0c-4.28,0 -7.61,-1.24 -9.88,-3.75 -2.2,-2.44 -3.36,-6.03 -3.36,-10.78 0,-4.78 1.16,-8.37 3.36,-10.81zm233.09 19.45l9.01 0 0.32 -0.02 -0 -3.38 -9.25 0c-0.91,0 -1.5,0.16 -1.83,0.45 -0.28,0.25 -0.4,0.67 -0.4,1.21 0,0.58 0.14,1.03 0.46,1.3 0.32,0.28 0.87,0.44 1.69,0.44zm-6.78 -12.25l0 -5 13.72 0c2.76,0 4.77,0.76 6.13,2.04 1.53,1.45 2.2,3.51 2.2,5.88l0 10.07c0,1.76 -0.26,3.01 -1.09,3.89 -0.83,0.88 -2.13,1.27 -4.19,1.27l-10.03 0c-2.68,0 -4.64,-0.66 -5.96,-1.86 -1.44,-1.3 -2.08,-3.19 -2.08,-5.53 0,-2.19 0.57,-3.94 1.91,-5.17 1.3,-1.2 3.3,-1.85 6.17,-1.85l9.33 0 0 -0.77c0,-0.65 -0.18,-1.21 -0.57,-1.57 -0.38,-0.34 -0.98,-0.54 -1.86,-0.54l-13.68 0 0 -0.86z"/>
  <path class="fil2" d="M442.1 130.58c1.09,-1.22 2.75,-1.8 5.12,-1.8l9.66 0 0 5.85 -8.41 0c-0.71,0 -1.2,0.14 -1.49,0.42 -0.28,0.29 -0.42,0.78 -0.42,1.48l0 15.39 -6.01 0 0 -16.03c0,-2.37 0.46,-4.11 1.54,-5.31zm-21.94 4.6c-0.39,0.36 -0.57,0.92 -0.57,1.57l0 1.42 9.21 0c0.93,0 1.54,-0.17 1.89,-0.47 0.29,-0.26 0.42,-0.69 0.42,-1.23 0,-0.59 -0.16,-1.06 -0.49,-1.35 -0.34,-0.3 -0.9,-0.47 -1.7,-0.47l-6.9 0c-0.88,0 -1.48,0.21 -1.86,0.54zm-4.27 -4.35c1.36,-1.28 3.36,-2.04 6.13,-2.04l6.94 0c2.69,0 4.66,0.66 5.99,1.87 1.43,1.3 2.09,3.19 2.09,5.56 0,2.21 -0.58,3.96 -1.94,5.19 -1.32,1.19 -3.33,1.83 -6.19,1.83l-9.33 0 0 0.69c0,0.66 0.17,1.22 0.56,1.57 0.38,0.34 0.98,0.54 1.87,0.54l13.96 0 0 5.89 -13.96 0c-2.76,0 -4.76,-0.76 -6.12,-2.04 -1.53,-1.44 -2.2,-3.51 -2.2,-5.88l0 -7.31c0,-2.37 0.67,-4.43 2.2,-5.87zm-23.71 4.99c-0.73,0.85 -1.08,2.23 -1.08,4.21 0,1.98 0.35,3.36 1.08,4.21 0.7,0.81 1.83,1.19 3.42,1.19l8.19 0 0 -6.65c0,-1.52 -0.26,-2.58 -0.86,-3.22 -0.59,-0.63 -1.59,-0.92 -3.07,-0.92l-4.26 0c-1.59,0 -2.72,0.38 -3.42,1.19zm-4.52 -4.11c1.78,-1.96 4.36,-2.92 7.53,-2.92l5.92 0c2.84,0 5.04,0.87 6.54,2.62 1.44,1.68 2.19,4.14 2.19,7.41l0 12.34c0,3.26 -0.6,5.58 -2.04,7.11 -1.45,1.54 -3.68,2.23 -6.93,2.23l-13.6 0 0 -5.85 13.11 0c1.36,0 2.23,-0.23 2.72,-0.75 0.49,-0.52 0.69,-1.42 0.69,-2.74l0 -0.12 -8.6 0c-3.17,0 -5.75,-0.98 -7.53,-2.95 -1.68,-1.87 -2.62,-4.6 -2.62,-8.21 0,-3.59 0.94,-6.31 2.62,-8.16zm-21.25 14.33l9.01 0 0.33 -0.02 -0 -3.38 -9.25 0c-0.91,0 -1.5,0.16 -1.83,0.45 -0.28,0.25 -0.4,0.67 -0.4,1.21 0,0.58 0.14,1.03 0.46,1.3 0.33,0.28 0.88,0.44 1.69,0.44zm-6.78 -12.25l0 -5 13.72 0c2.76,0 4.77,0.76 6.12,2.04 1.53,1.45 2.2,3.51 2.2,5.88l0 10.07c0,1.76 -0.26,3.01 -1.09,3.89 -0.83,0.88 -2.13,1.27 -4.19,1.27l-10.03 0c-2.68,0 -4.63,-0.66 -5.96,-1.86 -1.43,-1.3 -2.08,-3.19 -2.08,-5.53 0,-2.19 0.57,-3.94 1.91,-5.17 1.3,-1.2 3.3,-1.85 6.17,-1.85l9.34 0 0 -0.77c0,-0.65 -0.18,-1.21 -0.57,-1.57 -0.38,-0.34 -0.98,-0.54 -1.86,-0.54l-13.68 0 0 -0.86zm-23.77 -3.08c1.28,-1.24 3.22,-1.92 5.95,-1.92l12.75 0 0 5.85 -12.71 0c-0.77,0 -1.29,0.13 -1.57,0.39 -0.25,0.22 -0.37,0.63 -0.37,1.19 0,0.5 0.09,0.87 0.32,1.07 0.3,0.25 0.89,0.39 1.87,0.39l5.03 0c3.21,0 5.26,0.78 6.53,2.02 1.31,1.29 1.75,3.01 1.75,4.88 0,2.23 -0.63,4.14 -2.07,5.47 -1.28,1.19 -3.19,1.88 -5.8,1.88l-13.31 0 0 -5.89 13.31 0c0.79,0 1.31,-0.11 1.6,-0.35 0.24,-0.2 0.35,-0.58 0.35,-1.15 0,-0.57 -0.13,-0.96 -0.39,-1.16 -0.33,-0.26 -0.92,-0.38 -1.8,-0.38l-5.07 0c-3.22,0 -5.27,-0.85 -6.53,-2.16 -1.29,-1.34 -1.71,-3.11 -1.71,-4.95 0,-2.16 0.58,-3.93 1.88,-5.19zm-28.64 -0.93c0.67,-0.71 1.62,-1 2.93,-1l8.85 0c3.79,0 6.65,0.91 8.6,2.6 2.05,1.78 3.06,4.37 3.06,7.63l0 12.91 -6.05 0 0 -12.91c0,-1.43 -0.39,-2.52 -1.23,-3.23 -0.89,-0.75 -2.32,-1.15 -4.36,-1.15l-6.69 0 0 17.29 -6.01 0 0 -18.96c0,-1.48 0.28,-2.5 0.93,-3.19zm-21.37 5.4c-0.39,0.36 -0.57,0.92 -0.57,1.57l0 1.42 9.21 0c0.93,0 1.54,-0.17 1.88,-0.47 0.3,-0.26 0.43,-0.69 0.43,-1.23 0,-0.59 -0.16,-1.06 -0.49,-1.35 -0.34,-0.3 -0.9,-0.47 -1.7,-0.47l-6.9 0c-0.88,0 -1.48,0.21 -1.86,0.54zm-4.26 -4.35c1.36,-1.28 3.36,-2.04 6.12,-2.04l6.94 0c2.77,0 4.77,0.69 6.11,1.98 1.35,1.3 1.97,3.15 1.97,5.46 0,2.21 -0.58,3.96 -1.93,5.19 -1.32,1.19 -3.33,1.83 -6.19,1.83l-9.33 0 0 0.69c0,0.66 0.17,1.22 0.56,1.57 0.38,0.34 0.98,0.54 1.87,0.54l13.97 0 0 5.89 -13.97 0c-2.76,0 -4.76,-0.76 -6.12,-2.04 -1.53,-1.44 -2.2,-3.51 -2.2,-5.88l0 -7.31c0,-2.37 0.67,-4.43 2.2,-5.87zm-35.95 -2.04c-0.14,0.11 -0.26,0.3 -0.36,0.53l-8.39 22.61 -6.93 0 8.9 -23.94c0.57,-1.7 1.35,-3.09 2.5,-4.08 1.18,-1.01 2.71,-1.57 4.76,-1.57 2.21,0 3.91,0.66 5.08,1.81 1.24,1.21 1.87,2.95 1.87,5.01l0 16.2c0,0.25 0.06,0.44 0.16,0.55 0.08,0.08 0.21,0.14 0.36,0.14 0.17,0 0.32,-0.05 0.44,-0.13 0.13,-0.09 0.23,-0.25 0.3,-0.43l6.66 -17.51c0.57,-1.69 1.35,-3.07 2.5,-4.06 1.18,-1.01 2.71,-1.57 4.76,-1.57 2.21,0 3.91,0.66 5.08,1.81 1.24,1.21 1.87,2.95 1.87,5.01l0 22.78 -6.54 0 0 -22.53c0,-0.26 -0.06,-0.47 -0.17,-0.59 -0.08,-0.09 -0.2,-0.14 -0.36,-0.14 -0.14,0 -0.27,0.05 -0.38,0.13 -0.14,0.11 -0.26,0.28 -0.33,0.47l-6.66 17.51c-0.57,1.69 -1.36,3.08 -2.52,4.06 -1.19,1.01 -2.73,1.57 -4.77,1.57 -2.2,0 -3.89,-0.66 -5.06,-1.82 -1.23,-1.22 -1.85,-2.96 -1.85,-5.04l0 -16.16c0,-0.26 -0.06,-0.46 -0.17,-0.57 -0.09,-0.1 -0.23,-0.15 -0.39,-0.15 -0.14,0 -0.26,0.04 -0.36,0.12z"/>
  <path class="fil1" d="M487.47 125.97c-0.11,0.08 -0.22,0.21 -0.31,0.4l-10.07 25.56 -7.82 0 11.38 -28.8c0.65,-1.64 1.59,-2.78 2.84,-3.51 1.22,-0.72 2.71,-1.04 4.5,-1.04 1.76,0 3.25,0.31 4.46,1.04 1.24,0.74 2.17,1.88 2.79,3.52l10.94 28.79 -7.86 0 -9.65 -25.56c-0.07,-0.19 -0.17,-0.33 -0.27,-0.4 -0.1,-0.07 -0.26,-0.1 -0.45,-0.1 -0.2,0 -0.36,0.04 -0.47,0.11z"/>
  <polygon class="fil1" points="459.64,151.07 459.64,119.13 466.78,119.13 466.78,151.93 459.64,151.93 "/>
  <path class="fil2" d="M728.84 58.34c-1.1,0.99 -1.59,2.48 -1.59,4.18l0 4.06 21.84 0c2.35,0 3.91,-0.46 4.85,-1.28 0.87,-0.77 1.25,-1.95 1.25,-3.43 0,-1.59 -0.45,-2.87 -1.4,-3.71 -0.93,-0.82 -2.39,-1.28 -4.42,-1.28l-15.74 0c-2.22,0 -3.79,0.55 -4.79,1.45zm-8.62 -8.71c2.95,-2.78 7.33,-4.43 13.41,-4.43l15.83 0c6.09,0 10.47,1.5 13.36,4.27 2.91,2.79 4.25,6.82 4.25,11.85 0,4.81 -1.25,8.61 -4.14,11.23 -2.85,2.59 -7.24,3.96 -13.56,3.96l-22.12 0 0 2.4c0,1.74 0.48,3.22 1.56,4.2 1,0.9 2.57,1.44 4.81,1.44l31.03 0 0 11.78 -31.03 0c-6.08,0 -10.46,-1.65 -13.41,-4.44 -3.3,-3.12 -4.75,-7.62 -4.75,-12.8l0 -16.67c0,-5.18 1.45,-9.68 4.75,-12.8zm-47.15 34.92l9.72 0c3.6,0 6.07,-0.77 7.59,-2.43 1.54,-1.69 2.22,-4.42 2.22,-8.3l0 -16.93 -19.53 0c-3.87,0 -6.64,0.98 -8.41,3.13 -1.82,2.22 -2.69,5.74 -2.69,10.75 0,5.01 0.87,8.51 2.69,10.7 1.77,2.12 4.54,3.09 8.41,3.09zm19.53 -39.35l0 -21.21 12.15 0 0 50.29c0,7.25 -1.64,12.7 -4.8,16.38 -3.26,3.8 -8.07,5.67 -14.29,5.67l-13.52 0c-7,0 -12.69,-2.22 -16.59,-6.71 -3.69,-4.25 -5.74,-10.52 -5.74,-18.86 0,-8.34 2.05,-14.61 5.74,-18.86 3.9,-4.5 9.59,-6.71 16.59,-6.71l20.45 0zm-64.83 14.82c-1.77,-2.15 -4.54,-3.13 -8.41,-3.13l-8.43 0c-3.91,0 -6.68,0.98 -8.44,3.13 -1.82,2.22 -2.66,5.74 -2.66,10.75 0,5.01 0.85,8.51 2.66,10.7 1.76,2.12 4.53,3.09 8.44,3.09l8.43 0c3.87,0 6.65,-0.96 8.41,-3.09 1.82,-2.19 2.69,-5.69 2.69,-10.7 0,-5.01 -0.87,-8.53 -2.69,-10.75zm-34.35 -8.11c3.9,-4.5 9.59,-6.71 16.59,-6.71l10.28 0c6.97,0 12.66,2.22 16.58,6.73 3.69,4.25 5.75,10.51 5.75,18.84 0,8.32 -2.06,14.58 -5.75,18.84 -3.92,4.51 -9.61,6.73 -16.58,6.73l-10.28 0c-7,0 -12.69,-2.22 -16.59,-6.71 -3.69,-4.25 -5.74,-10.52 -5.74,-18.86 0,-8.34 2.05,-14.61 5.74,-18.86zm-60.89 -12.01c5.02,-5.56 12.42,-8.31 21.91,-8.31l25.29 0 0 13.17 -25.29 0c-5.68,0 -9.73,1.38 -12.32,4.41 -2.64,3.08 -3.87,7.94 -3.87,14.84 0,6.85 1.21,11.69 3.84,14.76 2.58,3.01 6.63,4.4 12.35,4.4l25.29 0 0 13.17 -25.29 0c-9.53,0 -16.92,-2.75 -21.92,-8.28 -4.89,-5.4 -7.44,-13.4 -7.44,-24.05 0,-10.68 2.57,-18.7 7.45,-24.11zm-70.05 15.87l0 -10.57 6.67 0 0 -11.57 12.15 0 0 11.57 13.52 0 0 11.69 -13.52 0 0 22.03c0,2.44 0.39,4.02 1.25,4.94 0.83,0.89 2.21,1.25 4.2,1.25l7.88 0 0 11.23 -9.92 0c-5.37,0 -9.25,-1.13 -11.84,-4.01 -2.55,-2.83 -3.73,-7.29 -3.73,-13.97l0 -21.47 -6.67 0 0 -1.12zm-36.61 -6.74c2.33,-2.59 5.91,-3.82 11.07,-3.82l21.22 0 0 11.69 -18.35 0c-1.86,0 -3.18,0.4 -3.99,1.22 -0.81,0.82 -1.19,2.13 -1.19,3.96l0 34.27 -12.06 0 0 -35.75c0,-5.19 0.99,-9 3.3,-11.56zm-27.57 11c-1.77,-2.15 -4.54,-3.13 -8.41,-3.13l-8.42 0c-3.91,0 -6.68,0.98 -8.44,3.13 -1.82,2.22 -2.66,5.74 -2.66,10.75 0,5.01 0.85,8.51 2.66,10.7 1.76,2.12 4.53,3.09 8.44,3.09l8.42 0c3.87,0 6.64,-0.96 8.41,-3.09 1.82,-2.19 2.69,-5.69 2.69,-10.7 0,-5.01 -0.87,-8.53 -2.69,-10.75zm-34.35 -8.11c3.9,-4.5 9.59,-6.71 16.59,-6.71l10.28 0c6.97,0 12.66,2.22 16.58,6.73 3.69,4.25 5.75,10.51 5.75,18.84 0,8.32 -2.06,14.58 -5.75,18.84 -3.92,4.51 -9.61,6.73 -16.58,6.73l-10.28 0c-7,0 -12.69,-2.22 -16.59,-6.71 -3.69,-4.25 -5.74,-10.52 -5.74,-18.86 0,-8.34 2.05,-14.61 5.74,-18.86zm-68.89 43.3l0 -71.22 12.06 0 0 21.21 16.1 0c8.39,0 14.73,2.03 19.03,5.76 4.49,3.9 6.72,9.6 6.72,16.75l0 28.63 -12.15 0 0 -28.63c0,-3.49 -1.06,-6.24 -3.3,-8.06 -2.21,-1.79 -5.6,-2.76 -10.3,-2.76l-16.1 0 0 39.45 -12.06 0 0 -1.12zm-62.03 -58.73c3.34,-3.08 8.3,-4.9 15.18,-4.9l32.79 0 0 13.17 -33.16 0c-2.41,0 -4.14,0.6 -5.27,1.62 -1.19,1.08 -1.76,2.72 -1.76,4.67 0,1.79 0.49,3.52 1.93,4.67 1.24,0.99 3.21,1.62 6.21,1.62l14.63 0c8.88,0 14.41,2.51 17.73,6.22 3.34,3.73 4.41,8.6 4.41,13.33 0,5.86 -1.68,10.95 -5.5,14.47 -3.41,3.14 -8.48,4.99 -15.53,4.99l-35.94 0 0 -13.17 36.31 0c2.54,0 4.39,-0.64 5.6,-1.73 1.28,-1.15 1.89,-2.88 1.89,-4.93 0,-1.92 -0.53,-3.73 -2.06,-4.94 -1.33,-1.05 -3.45,-1.72 -6.64,-1.72l-14.54 0c-7.62,0 -12.72,-1.92 -16.05,-4.85 -4.31,-3.78 -5.62,-9.18 -5.62,-14.33 0,-5.76 1.65,-10.74 5.39,-14.19z"/>
  <path class="fil1" d="M488.76 136.91c0.47,-0.01 0.81,0.05 1.13,0.23 0.34,0.19 0.54,0.47 0.73,0.89l1.55 3.88 -8.87 0c0.51,-1.28 1.01,-2.61 1.55,-3.86 0.19,-0.43 0.39,-0.71 0.73,-0.9 0.31,-0.18 0.65,-0.24 1.13,-0.23l2.05 0z"/>
 </g>
</svg>
