<?xml version="1.0" encoding="UTF-8"?>
<!DOCTYPE svg PUBLIC "-//W3C//DTD SVG 1.1//EN" "http://www.w3.org/Graphics/SVG/1.1/DTD/svg11.dtd">
<!-- Creator: CorelDRAW 2020 (64 Bit) -->
<svg xmlns="http://www.w3.org/2000/svg" xml:space="preserve" width="44.0121mm" height="33.8059mm" version="1.1" style="shape-rendering:geometricPrecision; text-rendering:geometricPrecision; image-rendering:optimizeQuality; fill-rule:evenodd; clip-rule:evenodd"
viewBox="0 0 293.88 225.73"
 xmlns:xlink="http://www.w3.org/1999/xlink"
 xmlns:xodm="http://www.corel.com/coreldraw/odm/2003">
 <defs>
  <style type="text/css">
   <![CDATA[
    .fil0 {fill:#83C44C;fill-rule:nonzero}
    .fil1 {fill:#00AFEF;fill-rule:nonzero}
    .fil2 {fill:black;fill-rule:nonzero}
   ]]>
  </style>
 </defs>
 <g id="Camada_x0020_1">
  <metadata id="CorelCorpID_0Corel-Layer"/>
  <path class="fil0" d="M167.87 25.88c9.82,7.24 33.35,22.67 40.74,30.05 1.14,0.89 1.84,2.16 2.04,3.5 0.21,1.38 -0.11,2.85 -1,4.06l-0.09 0.12c-7.28,9.84 -14.23,19.36 -21.2,28.9 -6.59,9.03 -13.19,18.06 -19.21,26.23l-0.12 0.16c-0.89,1.12 -2.16,1.81 -3.49,2.02 -1.35,0.21 -2.77,-0.08 -3.94,-0.94 -3.59,-2.88 -7.22,-5.73 -10.83,-8.59 -1.17,-0.93 -1.9,-2.24 -2.1,-3.61 -0.2,-1.37 0.1,-2.81 0.99,-4.01l27.03 -36.65c0.44,-0.86 0.59,-1.57 0.48,-2.15 -0.1,-0.54 -0.44,-1.04 -0.98,-1.5l-23.3 -17.3c-1.21,-0.9 -1.95,-2.21 -2.16,-3.59 -0.21,-1.38 0.11,-2.85 1.01,-4.06l8.48 -11.46c0.9,-1.21 2.21,-1.95 3.59,-2.16 1.38,-0.21 2.85,0.11 4.07,1z"/>
  <path class="fil1" d="M126.01 95.1c-9.82,-7.24 -33.35,-22.67 -40.74,-30.05 -1.14,-0.89 -1.84,-2.16 -2.04,-3.5 -0.21,-1.38 0.11,-2.85 1,-4.06l0.08 -0.11c7.3,-9.86 14.27,-19.4 21.25,-28.97 6.57,-9 13.18,-18.05 19.17,-26.17l0.12 -0.16c0.89,-1.12 2.16,-1.81 3.49,-2.02 1.35,-0.21 2.77,0.08 3.94,0.94 3.59,2.88 7.22,5.73 10.83,8.6 1.17,0.93 1.9,2.24 2.1,3.61 0.2,1.37 -0.1,2.81 -0.99,4.02l-27.04 36.65c-0.44,0.86 -0.59,1.57 -0.48,2.15 0.1,0.55 0.46,1.06 1.03,1.54l23.26 17.27c1.21,0.9 1.95,2.21 2.16,3.59 0.21,1.39 -0.11,2.85 -1.01,4.06l-8.48 11.46c-0.89,1.21 -2.21,1.95 -3.59,2.16 -1.38,0.2 -2.85,-0.11 -4.07,-1z"/>
  <path class="fil2" d="M268.04 219.49l-4.55 -11.05 3.48 0c0.99,2.4 2.88,7.79 4.04,9.71l0.12 0.02 0.15 -0.02 0.04 -0.05 4.17 -9.66 3.53 0 -4.79 11.06c-0.29,0.65 -0.69,1.11 -1.22,1.4 -0.51,0.28 -1.14,0.41 -1.88,0.41 -0.75,0 -1.38,-0.13 -1.89,-0.42 -0.53,-0.3 -0.93,-0.76 -1.19,-1.4zm-8.77 -12.27l0 -3.19 3.3 0 0 3.65 -3.3 0 0 -0.47zm0 13.36l0 -12.14 3.28 0 0 12.61 -3.28 0 0 -0.47zm-9.46 -9.42l0 -2.72 1.59 0 0 -2.76 3.3 0 0 2.76 3.23 0 0 3.19 -3.23 0 0 5.06c0,0.53 0.08,0.87 0.25,1.05 0.15,0.17 0.44,0.24 0.86,0.24l2.08 0 0 3.08 -2.57 0c-1.34,0 -2.31,-0.29 -2.97,-1.02 -0.64,-0.72 -0.94,-1.82 -0.94,-3.47l0 -4.93 -1.59 0 0 -0.47zm-9.53 6.68l4.91 0 0.18 -0.01 -0 -1.84 -5.04 0c-0.5,0 -0.82,0.09 -1,0.24 -0.15,0.14 -0.22,0.36 -0.22,0.66 0,0.31 0.08,0.56 0.25,0.71 0.18,0.15 0.48,0.24 0.92,0.24zm-3.69 -6.68l0 -2.72 7.47 0c1.51,0 2.6,0.41 3.34,1.11 0.83,0.79 1.2,1.91 1.2,3.2l0 5.48c0,0.96 -0.14,1.64 -0.6,2.12 -0.45,0.48 -1.16,0.69 -2.28,0.69l-5.46 0c-1.46,0 -2.52,-0.36 -3.24,-1.01 -0.78,-0.71 -1.13,-1.74 -1.13,-3.01 0,-1.19 0.31,-2.15 1.04,-2.82 0.71,-0.65 1.8,-1.01 3.36,-1.01l5.09 0 0 -0.42c0,-0.35 -0.1,-0.66 -0.31,-0.85 -0.2,-0.18 -0.54,-0.3 -1.01,-0.3l-7.45 0 0 -0.47zm-9.89 -1.74c0.6,-0.66 1.5,-0.98 2.79,-0.98l5.26 0 0 3.19 -4.58 0c-0.39,0 -0.66,0.08 -0.81,0.23 -0.15,0.15 -0.23,0.42 -0.23,0.81l0 8.38 -3.27 0 0 -8.74c0,-1.29 0.25,-2.24 0.84,-2.89zm-6.59 2.88c-0.38,-0.46 -0.99,-0.67 -1.85,-0.67l-2.01 0c-0.87,0 -1.49,0.21 -1.86,0.67 -0.4,0.49 -0.59,1.29 -0.59,2.44 0,1.15 0.19,1.94 0.59,2.43 0.38,0.46 0.99,0.67 1.87,0.67l2.01 0c0.86,0 1.48,-0.21 1.86,-0.67 0.4,-0.49 0.6,-1.28 0.6,-2.43 0,-1.15 -0.19,-1.95 -0.6,-2.44zm-8.2 -2.19c0.97,-1.12 2.38,-1.67 4.11,-1.67l2.45 0c1.72,0 3.13,0.55 4.11,1.68 0.91,1.05 1.42,2.59 1.42,4.63 0,2.04 -0.51,3.58 -1.42,4.63 -0.97,1.12 -2.39,1.68 -4.11,1.68l-2.45 0c-1.73,0 -3.14,-0.55 -4.11,-1.67 -0.91,-1.05 -1.42,-2.59 -1.42,-4.63 0,-2.04 0.51,-3.58 1.42,-4.63zm-12.48 2.04c-0.33,0.37 -0.48,0.98 -0.48,1.87l0 3.82 4.47 0c0.87,0 1.49,-0.21 1.86,-0.66 0.4,-0.49 0.59,-1.28 0.59,-2.43 0,-1.15 -0.19,-1.95 -0.59,-2.44 -0.38,-0.46 -0.99,-0.67 -1.86,-0.67l-2.3 0c-0.81,0 -1.36,0.16 -1.68,0.52zm-2.57 -2.29c0.82,-0.95 2.01,-1.42 3.57,-1.42l3.23 0c1.72,0 3.13,0.55 4.09,1.67 0.91,1.05 1.41,2.59 1.41,4.63 0,2.04 -0.51,3.58 -1.41,4.63 -0.97,1.12 -2.37,1.67 -4.09,1.67l-4.71 0 0 4.69 -3.28 0 0 -11.83c0,-1.78 0.4,-3.13 1.19,-4.04zm-10.43 -0.44c0.6,-0.66 1.5,-0.98 2.79,-0.98l5.26 0 0 3.19 -4.58 0c-0.39,0 -0.66,0.08 -0.81,0.23 -0.15,0.15 -0.23,0.42 -0.23,0.81l0 8.38 -3.27 0 0 -8.74c0,-1.29 0.25,-2.24 0.84,-2.89zm-6.59 2.88c-0.38,-0.46 -0.99,-0.67 -1.85,-0.67l-2.01 0c-0.87,0 -1.48,0.21 -1.86,0.67 -0.4,0.49 -0.59,1.29 -0.59,2.44 0,1.15 0.19,1.94 0.59,2.43 0.38,0.46 0.99,0.67 1.86,0.67l2.01 0c0.86,0 1.48,-0.21 1.86,-0.67 0.4,-0.49 0.6,-1.28 0.6,-2.43 0,-1.15 -0.19,-1.95 -0.6,-2.44zm-8.2 -2.19c0.97,-1.12 2.38,-1.67 4.11,-1.67l2.45 0c1.72,0 3.13,0.55 4.11,1.68 0.91,1.05 1.42,2.59 1.42,4.63 0,2.04 -0.51,3.58 -1.42,4.63 -0.97,1.12 -2.39,1.68 -4.11,1.68l-2.45 0c-1.73,0 -3.14,-0.55 -4.11,-1.67 -0.91,-1.05 -1.42,-2.59 -1.42,-4.63 0,-2.04 0.51,-3.58 1.42,-4.63zm-14.54 -2.87c1.24,-1.37 3.06,-2.05 5.38,-2.05l6.24 0 0 3.54 -6.24 0c-1.29,0 -2.22,0.31 -2.79,0.98 -0.6,0.7 -0.88,1.82 -0.88,3.41 0,1.59 0.28,2.7 0.87,3.39 0.57,0.67 1.49,0.98 2.8,0.98l6.24 0 0 3.54 -6.24 0c-2.33,0 -4.15,-0.68 -5.38,-2.04 -1.2,-1.33 -1.83,-3.28 -1.83,-5.88 0,-2.6 0.63,-4.56 1.83,-5.89zm126.99 10.6l4.91 0 0.18 -0.01 -0 -1.84 -5.04 0c-0.5,0 -0.82,0.09 -1,0.24 -0.15,0.14 -0.22,0.36 -0.22,0.66 0,0.31 0.08,0.56 0.25,0.71 0.18,0.15 0.48,0.24 0.92,0.24zm-3.69 -6.68l0 -2.72 7.48 0c1.51,0 2.6,0.41 3.34,1.11 0.83,0.79 1.2,1.91 1.2,3.2l0 5.48c0,0.96 -0.14,1.64 -0.59,2.12 -0.45,0.48 -1.16,0.69 -2.28,0.69l-5.46 0c-1.46,0 -2.52,-0.36 -3.25,-1.01 -0.78,-0.71 -1.13,-1.74 -1.13,-3.01 0,-1.19 0.31,-2.15 1.04,-2.82 0.71,-0.65 1.8,-1.01 3.36,-1.01l5.09 0 0 -0.42c0,-0.35 -0.1,-0.66 -0.31,-0.85 -0.2,-0.18 -0.53,-0.3 -1.01,-0.3l-7.45 0 0 -0.47z"/>
  <path class="fil2" d="M116.83 209.41c0.6,-0.66 1.5,-0.98 2.79,-0.98l5.26 0 0 3.19 -4.58 0c-0.39,0 -0.66,0.08 -0.81,0.23 -0.15,0.15 -0.23,0.42 -0.23,0.81l0 8.38 -3.27 0 0 -8.74c0,-1.29 0.25,-2.24 0.84,-2.89zm-11.95 2.5c-0.21,0.19 -0.31,0.5 -0.31,0.85l0 0.77 5.02 0c0.51,0 0.84,-0.09 1.03,-0.26 0.16,-0.14 0.23,-0.38 0.23,-0.67 0,-0.32 -0.09,-0.58 -0.27,-0.74 -0.19,-0.16 -0.49,-0.26 -0.93,-0.26l-3.76 0c-0.48,0 -0.81,0.11 -1.01,0.29zm-2.32 -2.37c0.74,-0.7 1.83,-1.11 3.34,-1.11l3.78 0c1.46,0 2.54,0.36 3.27,1.02 0.78,0.71 1.14,1.74 1.14,3.03 0,1.2 -0.32,2.16 -1.05,2.83 -0.72,0.65 -1.81,1 -3.37,1l-5.08 0 0 0.37c0,0.36 0.09,0.66 0.31,0.85 0.2,0.18 0.54,0.29 1.02,0.29l7.61 0 0 3.21 -7.61 0c-1.5,0 -2.59,-0.41 -3.33,-1.11 -0.83,-0.79 -1.2,-1.91 -1.2,-3.2l0 -3.98c0,-1.29 0.37,-2.41 1.2,-3.2zm-12.92 2.72c-0.4,0.46 -0.59,1.21 -0.59,2.29 0,1.08 0.19,1.83 0.59,2.29 0.38,0.44 1,0.65 1.86,0.65l4.46 0 0 -3.62c0,-0.83 -0.14,-1.41 -0.47,-1.75 -0.32,-0.34 -0.87,-0.5 -1.67,-0.5l-2.32 0c-0.87,0 -1.48,0.2 -1.86,0.65zm-2.46 -2.24c0.97,-1.07 2.38,-1.59 4.1,-1.59l3.23 0c1.55,0 2.74,0.47 3.56,1.42 0.79,0.91 1.19,2.26 1.19,4.04l0 6.72c0,1.78 -0.33,3.04 -1.11,3.87 -0.79,0.84 -2.01,1.21 -3.78,1.21l-7.41 0 0 -3.19 7.14 0c0.74,0 1.21,-0.13 1.48,-0.41 0.27,-0.28 0.38,-0.77 0.38,-1.49l0 -0.06 -4.69 0c-1.73,0 -3.13,-0.53 -4.11,-1.61 -0.92,-1.02 -1.42,-2.51 -1.42,-4.47 0,-1.96 0.51,-3.44 1.43,-4.45zm-11.57 7.8l4.91 0 0.18 -0.01 -0 -1.84 -5.04 0c-0.5,0 -0.82,0.09 -1,0.24 -0.15,0.14 -0.22,0.36 -0.22,0.66 0,0.31 0.08,0.56 0.25,0.71 0.18,0.15 0.48,0.24 0.92,0.24zm-3.69 -6.68l0 -2.72 7.47 0c1.51,0 2.6,0.41 3.34,1.11 0.83,0.79 1.2,1.91 1.2,3.2l0 5.48c0,0.96 -0.14,1.64 -0.59,2.12 -0.46,0.48 -1.16,0.69 -2.28,0.69l-5.46 0c-1.46,0 -2.53,-0.36 -3.25,-1.01 -0.78,-0.71 -1.14,-1.74 -1.14,-3.01 0,-1.19 0.31,-2.15 1.04,-2.82 0.71,-0.65 1.8,-1.01 3.36,-1.01l5.09 0 0 -0.42c0,-0.35 -0.1,-0.66 -0.31,-0.85 -0.2,-0.18 -0.54,-0.3 -1.01,-0.3l-7.45 0 0 -0.47zm-12.95 -1.68c0.7,-0.67 1.76,-1.05 3.24,-1.05l6.94 0 0 3.19 -6.92 0c-0.42,0 -0.7,0.07 -0.86,0.21 -0.14,0.12 -0.2,0.34 -0.2,0.65 0,0.27 0.05,0.47 0.17,0.58 0.16,0.14 0.48,0.21 1.02,0.21l2.74 0c1.75,0 2.87,0.42 3.56,1.1 0.71,0.7 0.95,1.64 0.95,2.66 0,1.21 -0.35,2.25 -1.13,2.98 -0.7,0.65 -1.73,1.02 -3.16,1.02l-7.25 0 0 -3.21 7.25 0c0.43,0 0.72,-0.06 0.87,-0.19 0.13,-0.11 0.19,-0.32 0.19,-0.62 0,-0.31 -0.07,-0.52 -0.21,-0.64 -0.18,-0.14 -0.5,-0.2 -0.98,-0.2l-2.77 0c-1.76,0 -2.87,-0.46 -3.56,-1.18 -0.7,-0.73 -0.93,-1.69 -0.93,-2.69 0,-1.18 0.32,-2.14 1.03,-2.83zm-15.6 -0.5c0.36,-0.39 0.88,-0.54 1.6,-0.54l4.82 0c2.06,0 3.62,0.5 4.68,1.42 1.11,0.97 1.66,2.38 1.66,4.16l0 7.03 -3.3 0 0 -7.03c0,-0.78 -0.21,-1.37 -0.67,-1.76 -0.48,-0.41 -1.27,-0.63 -2.38,-0.63l-3.65 0 0 9.42 -3.28 0 0 -10.33c0,-0.81 0.16,-1.36 0.5,-1.74zm-11.64 2.94c-0.21,0.19 -0.31,0.5 -0.31,0.85l0 0.77 5.02 0c0.51,0 0.84,-0.09 1.03,-0.26 0.16,-0.14 0.23,-0.37 0.23,-0.67 0,-0.32 -0.09,-0.58 -0.27,-0.74 -0.19,-0.16 -0.49,-0.26 -0.93,-0.26l-3.76 0c-0.48,0 -0.81,0.11 -1.01,0.29zm-2.32 -2.37c0.74,-0.7 1.83,-1.11 3.34,-1.11l3.78 0c1.51,0 2.6,0.38 3.33,1.08 0.74,0.71 1.08,1.72 1.08,2.97 0,1.2 -0.32,2.16 -1.05,2.83 -0.72,0.65 -1.81,1 -3.37,1l-5.08 0 0 0.37c0,0.36 0.09,0.66 0.31,0.85 0.2,0.18 0.54,0.29 1.02,0.29l7.61 0 0 3.21 -7.61 0c-1.5,0 -2.59,-0.41 -3.33,-1.11 -0.83,-0.79 -1.2,-1.91 -1.2,-3.2l0 -3.98c0,-1.29 0.37,-2.41 1.2,-3.2zm-19.59 -1.11c-0.08,0.06 -0.14,0.16 -0.2,0.29l-4.57 12.32 -3.78 0 4.85 -13.04c0.31,-0.92 0.74,-1.69 1.36,-2.22 0.64,-0.55 1.48,-0.86 2.59,-0.86 1.2,0 2.13,0.36 2.77,0.99 0.68,0.66 1.02,1.61 1.02,2.73l0 8.82c0,0.13 0.03,0.24 0.09,0.3 0.04,0.05 0.11,0.08 0.2,0.08 0.09,0 0.18,-0.03 0.24,-0.07 0.07,-0.05 0.13,-0.13 0.16,-0.24l3.63 -9.54c0.31,-0.92 0.74,-1.67 1.36,-2.21 0.64,-0.55 1.48,-0.86 2.59,-0.86 1.2,0 2.13,0.36 2.77,0.99 0.68,0.66 1.02,1.61 1.02,2.73l0 12.41 -3.56 0 0 -12.27c0,-0.14 -0.03,-0.25 -0.09,-0.32 -0.04,-0.05 -0.11,-0.08 -0.2,-0.08 -0.08,0 -0.15,0.03 -0.2,0.07 -0.08,0.06 -0.14,0.15 -0.18,0.26l-3.63 9.54c-0.31,0.92 -0.74,1.68 -1.37,2.21 -0.65,0.55 -1.49,0.86 -2.6,0.86 -1.2,0 -2.12,-0.36 -2.75,-0.99 -0.67,-0.66 -1.01,-1.61 -1.01,-2.74l0 -8.8c0,-0.14 -0.04,-0.25 -0.09,-0.31 -0.05,-0.05 -0.12,-0.08 -0.21,-0.08 -0.08,0 -0.14,0.02 -0.19,0.06z"/>
  <path class="fil1" d="M141.55 206.9c-0.06,0.04 -0.12,0.12 -0.17,0.22l-5.49 13.92 -4.26 0 6.2 -15.69c0.35,-0.89 0.87,-1.51 1.55,-1.91 0.67,-0.39 1.48,-0.56 2.45,-0.56 0.96,0 1.77,0.17 2.43,0.57 0.67,0.4 1.18,1.03 1.52,1.92l5.96 15.68 -4.28 0 -5.26 -13.93c-0.04,-0.11 -0.09,-0.18 -0.15,-0.22 -0.06,-0.04 -0.14,-0.06 -0.25,-0.06 -0.11,0 -0.19,0.02 -0.25,0.06z"/>
  <polygon class="fil1" points="126.39,220.58 126.39,203.17 130.28,203.17 130.28,221.04 126.39,221.04 "/>
  <path class="fil2" d="M273.05 170.06c-0.6,0.54 -0.86,1.35 -0.86,2.28l0 2.21 11.9 0c1.28,0 2.13,-0.25 2.64,-0.7 0.48,-0.42 0.68,-1.06 0.68,-1.87 0,-0.86 -0.25,-1.56 -0.76,-2.02 -0.51,-0.45 -1.3,-0.7 -2.41,-0.7l-8.58 0c-1.21,0 -2.06,0.3 -2.61,0.79zm-4.69 -4.74c1.6,-1.52 3.99,-2.42 7.3,-2.42l8.63 0c3.32,0 5.71,0.82 7.28,2.33 1.58,1.52 2.31,3.71 2.31,6.45 0,2.62 -0.68,4.69 -2.26,6.12 -1.55,1.41 -3.95,2.16 -7.39,2.16l-12.05 0 0 1.31c0,0.95 0.26,1.75 0.85,2.28 0.55,0.49 1.4,0.79 2.62,0.79l16.91 0 0 6.42 -16.91 0c-3.31,0 -5.7,-0.9 -7.3,-2.42 -1.8,-1.7 -2.59,-4.15 -2.59,-6.97l0 -9.08c0,-2.82 0.79,-5.27 2.59,-6.97zm-25.69 19.02l5.3 0c1.96,0 3.31,-0.42 4.13,-1.33 0.84,-0.92 1.21,-2.41 1.21,-4.52l0 -9.23 -10.64 0c-2.11,0 -3.62,0.54 -4.58,1.7 -0.99,1.21 -1.47,3.13 -1.47,5.86 0,2.73 0.47,4.63 1.46,5.83 0.96,1.16 2.47,1.68 4.58,1.68zm10.64 -21.44l0 -11.55 6.62 0 0 27.4c0,3.95 -0.89,6.92 -2.61,8.92 -1.78,2.07 -4.39,3.09 -7.78,3.09l-7.37 0c-3.82,0 -6.91,-1.21 -9.04,-3.66 -2.01,-2.32 -3.13,-5.73 -3.13,-10.27 0,-4.54 1.12,-7.96 3.13,-10.27 2.13,-2.45 5.22,-3.66 9.04,-3.66l11.14 0zm-35.32 8.07c-0.96,-1.17 -2.48,-1.7 -4.58,-1.7l-4.59 0c-2.13,0 -3.64,0.54 -4.6,1.7 -0.99,1.21 -1.45,3.13 -1.45,5.86 0,2.73 0.46,4.63 1.45,5.83 0.96,1.16 2.47,1.68 4.6,1.68l4.59 0c2.11,0 3.62,-0.52 4.58,-1.68 0.99,-1.19 1.46,-3.1 1.46,-5.83 0,-2.73 -0.47,-4.65 -1.47,-5.86zm-18.71 -4.42c2.13,-2.45 5.22,-3.66 9.04,-3.66l5.6 0c3.8,0 6.9,1.21 9.03,3.67 2.01,2.32 3.13,5.73 3.13,10.26 0,4.53 -1.12,7.94 -3.13,10.26 -2.13,2.46 -5.23,3.67 -9.03,3.67l-5.6 0c-3.81,0 -6.91,-1.21 -9.04,-3.66 -2.01,-2.32 -3.12,-5.73 -3.12,-10.27 0,-4.54 1.12,-7.96 3.12,-10.27zm-33.17 -6.54c2.73,-3.03 6.76,-4.53 11.94,-4.53l13.78 0 0 7.18 -13.78 0c-3.09,0 -5.3,0.75 -6.71,2.4 -1.43,1.68 -2.11,4.32 -2.11,8.09 0,3.73 0.66,6.37 2.09,8.04 1.4,1.64 3.61,2.4 6.73,2.4l13.78 0 0 7.18 -13.78 0c-5.19,0 -9.22,-1.5 -11.94,-4.51 -2.66,-2.94 -4.05,-7.3 -4.05,-13.1 0,-5.82 1.4,-10.19 4.06,-13.14zm-38.16 8.65l0 -5.76 3.63 0 0 -6.31 6.62 0 0 6.31 7.37 0 0 6.37 -7.37 0 0 12c0,1.33 0.21,2.19 0.68,2.69 0.45,0.48 1.2,0.68 2.29,0.68l4.29 0 0 6.12 -5.4 0c-2.93,0 -5.04,-0.61 -6.45,-2.18 -1.39,-1.54 -2.03,-3.97 -2.03,-7.61l0 -11.7 -3.63 0 0 -0.61zm-19.95 -3.67c1.27,-1.41 3.22,-2.08 6.03,-2.08l11.56 0 0 6.37 -10 0c-1.01,0 -1.73,0.22 -2.17,0.66 -0.44,0.44 -0.65,1.16 -0.65,2.16l0 18.67 -6.57 0 0 -19.48c0,-2.83 0.54,-4.91 1.8,-6.3zm-15.02 5.99c-0.96,-1.17 -2.48,-1.7 -4.58,-1.7l-4.59 0c-2.13,0 -3.64,0.54 -4.6,1.7 -0.99,1.21 -1.45,3.13 -1.45,5.86 0,2.73 0.46,4.63 1.45,5.83 0.96,1.16 2.47,1.68 4.6,1.68l4.59 0c2.11,0 3.62,-0.52 4.58,-1.68 0.99,-1.19 1.46,-3.1 1.46,-5.83 0,-2.73 -0.47,-4.65 -1.47,-5.86zm-18.71 -4.42c2.13,-2.45 5.22,-3.66 9.04,-3.66l5.6 0c3.8,0 6.9,1.21 9.03,3.67 2.01,2.32 3.13,5.73 3.13,10.26 0,4.53 -1.12,7.94 -3.13,10.26 -2.13,2.46 -5.23,3.67 -9.03,3.67l-5.6 0c-3.82,0 -6.91,-1.21 -9.04,-3.66 -2.01,-2.32 -3.13,-5.73 -3.13,-10.27 0,-4.54 1.12,-7.96 3.13,-10.27zm-37.53 23.59l0 -38.8 6.57 0 0 11.55 8.77 0c4.57,0 8.03,1.1 10.37,3.14 2.45,2.12 3.66,5.23 3.66,9.13l0 15.6 -6.62 0 0 -15.6c0,-1.9 -0.58,-3.4 -1.8,-4.39 -1.2,-0.97 -3.05,-1.5 -5.61,-1.5l-8.77 0 0 21.49 -6.57 0 0 -0.61zm-33.79 -32c1.82,-1.68 4.52,-2.67 8.27,-2.67l17.87 0 0 7.18 -18.07 0c-1.31,0 -2.26,0.33 -2.87,0.88 -0.65,0.59 -0.96,1.48 -0.96,2.54 0,0.97 0.27,1.92 1.05,2.54 0.67,0.54 1.75,0.88 3.38,0.88l7.97 0c4.84,0 7.85,1.37 9.66,3.39 1.82,2.03 2.4,4.68 2.4,7.26 0,3.2 -0.92,5.96 -3,7.88 -1.86,1.71 -4.62,2.72 -8.46,2.72l-19.58 0 0 -7.18 19.78 0c1.39,0 2.39,-0.35 3.05,-0.94 0.7,-0.63 1.03,-1.57 1.03,-2.68 0,-1.05 -0.29,-2.03 -1.12,-2.69 -0.73,-0.57 -1.88,-0.94 -3.62,-0.94l-7.92 0c-4.15,0 -6.93,-1.05 -8.75,-2.64 -2.35,-2.06 -3.06,-5 -3.06,-7.81 0,-3.14 0.9,-5.85 2.93,-7.73z"/>
  <path class="fil1" d="M142.25 212.86c0.26,-0 0.44,0.03 0.61,0.13 0.18,0.11 0.3,0.26 0.4,0.48l0.84 2.11 -4.83 0c0.28,-0.7 0.55,-1.42 0.84,-2.11 0.1,-0.23 0.22,-0.39 0.4,-0.49 0.17,-0.1 0.36,-0.13 0.61,-0.12l1.12 0z"/>
 </g>
</svg>
