<?xml version="1.0" encoding="UTF-8"?>
<!DOCTYPE svg PUBLIC "-//W3C//DTD SVG 1.1//EN" "http://www.w3.org/Graphics/SVG/1.1/DTD/svg11.dtd">
<!-- Creator: CorelDRAW 2020 (64 Bit) -->
<svg xmlns="http://www.w3.org/2000/svg" xml:space="preserve" width="62.587mm" height="15.0778mm" version="1.1" style="shape-rendering:geometricPrecision; text-rendering:geometricPrecision; image-rendering:optimizeQuality; fill-rule:evenodd; clip-rule:evenodd"
viewBox="0 0 577.99 139.24"
 xmlns:xlink="http://www.w3.org/1999/xlink"
 xmlns:xodm="http://www.corel.com/coreldraw/odm/2003">
 <defs>
  <style type="text/css">
   <![CDATA[
    .fil0 {fill:#83C44C;fill-rule:nonzero}
    .fil1 {fill:#00AFEF;fill-rule:nonzero}
    .fil2 {fill:black;fill-rule:nonzero}
   ]]>
  </style>
 </defs>
 <g id="Camada_x0020_1">
  <metadata id="CorelCorpID_0Corel-Layer"/>
  <path class="fil0" d="M97.48 29.78c11.3,8.34 38.38,26.09 46.89,34.59 1.31,1.03 2.11,2.49 2.34,4.02 0.24,1.59 -0.13,3.28 -1.15,4.67l-0.11 0.14c-8.38,11.33 -16.38,22.28 -24.4,33.26 -7.59,10.39 -15.18,20.79 -22.12,30.19l-0.14 0.18c-1.02,1.29 -2.48,2.09 -4.02,2.33 -1.56,0.24 -3.19,-0.1 -4.53,-1.08 -4.14,-3.31 -8.31,-6.6 -12.46,-9.89 -1.35,-1.07 -2.18,-2.58 -2.42,-4.16 -0.23,-1.57 0.12,-3.23 1.15,-4.62l31.11 -42.18c0.51,-0.99 0.68,-1.81 0.56,-2.47 -0.11,-0.62 -0.51,-1.2 -1.13,-1.73l-26.82 -19.92c-1.39,-1.04 -2.25,-2.55 -2.48,-4.14 -0.24,-1.59 0.13,-3.28 1.16,-4.67l9.76 -13.19c1.03,-1.4 2.54,-2.24 4.13,-2.48 1.59,-0.24 3.28,0.13 4.68,1.16z"/>
  <path class="fil1" d="M49.3 109.46c-11.3,-8.34 -38.38,-26.09 -46.89,-34.59 -1.31,-1.03 -2.11,-2.49 -2.34,-4.03 -0.24,-1.59 0.13,-3.28 1.15,-4.67l0.09 -0.12c8.4,-11.35 16.42,-22.33 24.46,-33.34 7.57,-10.36 15.17,-20.77 22.07,-30.12l0.14 -0.18c1.02,-1.28 2.48,-2.09 4.02,-2.33 1.55,-0.24 3.19,0.09 4.53,1.08 4.14,3.31 8.31,6.6 12.46,9.89 1.34,1.07 2.18,2.58 2.42,4.16 0.24,1.58 -0.12,3.24 -1.14,4.62l-31.12 42.18c-0.51,0.99 -0.68,1.81 -0.56,2.47 0.12,0.64 0.53,1.22 1.18,1.77l26.77 19.87c1.39,1.04 2.24,2.55 2.48,4.14 0.24,1.59 -0.13,3.28 -1.16,4.68l-9.76 13.19c-1.03,1.4 -2.54,2.24 -4.13,2.48 -1.59,0.23 -3.28,-0.13 -4.68,-1.16z"/>
  <path class="fil2" d="M542.26 112.33l-6.3 -15.29 4.81 0c1.37,3.32 3.99,10.77 5.58,13.43l0.17 0.02 0.21 -0.03 0.05 -0.07 5.76 -13.36 4.89 0 -6.63 15.3c-0.39,0.9 -0.95,1.53 -1.69,1.94 -0.71,0.39 -1.57,0.56 -2.59,0.56 -1.04,0 -1.91,-0.18 -2.62,-0.58 -0.74,-0.41 -1.29,-1.05 -1.65,-1.94zm-12.13 -16.97l0 -4.41 4.56 0 0 5.05 -4.56 0 0 -0.64zm0 18.47l0 -16.79 4.53 0 0 17.44 -4.53 0 0 -0.64zm-13.09 -13.03l0 -3.77 2.2 0 0 -3.82 4.56 0 0 3.82 4.47 0 0 4.41 -4.47 0 0 7c0,0.73 0.11,1.2 0.34,1.45 0.21,0.23 0.61,0.32 1.19,0.32l2.88 0 0 4.26 -3.55 0c-1.85,0 -3.2,-0.4 -4.11,-1.42 -0.89,-0.99 -1.3,-2.52 -1.3,-4.8l0 -6.82 -2.2 0 0 -0.64zm-13.18 9.23l6.79 0 0.25 -0.02 -0 -2.55 -6.97 0c-0.69,0 -1.13,0.12 -1.38,0.34 -0.21,0.19 -0.3,0.5 -0.3,0.91 0,0.43 0.11,0.78 0.35,0.98 0.25,0.21 0.66,0.33 1.27,0.33zm-5.11 -9.23l0 -3.77 10.33 0c2.08,0 3.59,0.57 4.62,1.54 1.15,1.09 1.66,2.64 1.66,4.43l0 7.58c0,1.32 -0.2,2.27 -0.83,2.94 -0.63,0.66 -1.61,0.95 -3.15,0.95l-7.55 0c-2.02,0 -3.49,-0.5 -4.49,-1.4 -1.08,-0.98 -1.57,-2.41 -1.57,-4.17 0,-1.65 0.43,-2.97 1.44,-3.9 0.98,-0.91 2.49,-1.39 4.64,-1.39l7.03 0 0 -0.58c0,-0.49 -0.13,-0.91 -0.43,-1.18 -0.28,-0.25 -0.74,-0.41 -1.4,-0.41l-10.31 0 0 -0.64zm-13.67 -2.41c0.83,-0.92 2.08,-1.35 3.86,-1.35l7.28 0 0 4.41 -6.33 0c-0.54,0 -0.91,0.11 -1.12,0.32 -0.21,0.22 -0.31,0.59 -0.31,1.12l0 11.59 -4.53 0 0 -12.08c0,-1.78 0.35,-3.1 1.16,-4zm-9.11 3.99c-0.53,-0.64 -1.38,-0.93 -2.57,-0.93l-2.78 0c-1.2,0 -2.05,0.29 -2.58,0.93 -0.55,0.68 -0.81,1.79 -0.81,3.38 0,1.59 0.26,2.69 0.81,3.36 0.52,0.63 1.38,0.92 2.58,0.92l2.78 0c1.19,0 2.04,-0.29 2.57,-0.92 0.56,-0.67 0.82,-1.77 0.82,-3.36 0,-1.59 -0.27,-2.7 -0.83,-3.38zm-11.34 -3.03c1.34,-1.55 3.29,-2.31 5.69,-2.31l3.39 0c2.38,0 4.33,0.76 5.68,2.32 1.26,1.45 1.97,3.58 1.97,6.4 0,2.82 -0.7,4.95 -1.97,6.4 -1.35,1.55 -3.3,2.32 -5.68,2.32l-3.39 0c-2.39,0 -4.34,-0.76 -5.69,-2.31 -1.26,-1.45 -1.96,-3.59 -1.96,-6.41 0,-2.82 0.7,-4.95 1.96,-6.41zm-17.26 2.82c-0.46,0.51 -0.66,1.35 -0.66,2.58l0 5.29 6.18 0c1.21,0 2.06,-0.29 2.58,-0.92 0.56,-0.68 0.81,-1.77 0.81,-3.36 0,-1.59 -0.26,-2.7 -0.82,-3.38 -0.52,-0.64 -1.37,-0.93 -2.57,-0.93l-3.18 0c-1.12,0 -1.88,0.23 -2.33,0.72zm-3.55 -3.16c1.13,-1.31 2.78,-1.96 4.93,-1.96l4.46 0c2.38,0 4.32,0.76 5.66,2.31 1.26,1.45 1.96,3.59 1.96,6.41 0,2.82 -0.7,4.95 -1.96,6.4 -1.34,1.55 -3.28,2.31 -5.66,2.31l-6.51 0 0 6.48 -4.53 0 0 -16.36c0,-2.46 0.56,-4.33 1.65,-5.59zm-14.43 -0.61c0.83,-0.92 2.07,-1.35 3.86,-1.35l7.28 0 0 4.41 -6.33 0c-0.54,0 -0.91,0.11 -1.12,0.32 -0.21,0.22 -0.31,0.59 -0.31,1.12l0 11.59 -4.53 0 0 -12.08c0,-1.78 0.35,-3.1 1.16,-4zm-9.11 3.99c-0.53,-0.64 -1.38,-0.93 -2.57,-0.93l-2.78 0c-1.2,0 -2.05,0.29 -2.57,0.93 -0.56,0.68 -0.82,1.79 -0.82,3.38 0,1.59 0.26,2.69 0.81,3.36 0.52,0.63 1.37,0.92 2.58,0.92l2.78 0c1.19,0 2.04,-0.29 2.57,-0.92 0.56,-0.67 0.82,-1.77 0.82,-3.36 0,-1.59 -0.27,-2.7 -0.83,-3.38zm-11.34 -3.03c1.34,-1.55 3.29,-2.31 5.68,-2.31l3.39 0c2.38,0 4.33,0.76 5.68,2.32 1.26,1.45 1.97,3.58 1.97,6.4 0,2.82 -0.71,4.95 -1.97,6.4 -1.35,1.55 -3.3,2.32 -5.68,2.32l-3.39 0c-2.39,0 -4.34,-0.76 -5.68,-2.31 -1.26,-1.45 -1.96,-3.59 -1.96,-6.41 0,-2.82 0.7,-4.95 1.96,-6.41zm-20.1 -3.97c1.71,-1.9 4.23,-2.84 7.44,-2.84l8.63 0 0 4.9 -8.63 0c-1.79,0 -3.06,0.43 -3.86,1.36 -0.83,0.96 -1.21,2.51 -1.21,4.72 0,2.2 0.38,3.74 1.2,4.7 0.79,0.93 2.07,1.36 3.87,1.36l8.63 0 0 4.9 -8.63 0c-3.22,0 -5.73,-0.94 -7.44,-2.82 -1.66,-1.83 -2.53,-4.54 -2.53,-8.13 0,-3.6 0.87,-6.31 2.53,-8.15zm175.63 14.66l6.79 0 0.25 -0.02 -0 -2.55 -6.97 0c-0.69,0 -1.13,0.12 -1.38,0.34 -0.21,0.19 -0.3,0.5 -0.3,0.91 0,0.43 0.11,0.78 0.34,0.98 0.25,0.21 0.66,0.33 1.27,0.33zm-5.11 -9.23l0 -3.77 10.34 0c2.08,0 3.59,0.57 4.61,1.54 1.15,1.09 1.66,2.65 1.66,4.43l0 7.58c0,1.32 -0.2,2.27 -0.82,2.93 -0.63,0.66 -1.61,0.95 -3.16,0.95l-7.56 0c-2.02,0 -3.49,-0.5 -4.49,-1.4 -1.08,-0.98 -1.57,-2.41 -1.57,-4.17 0,-1.65 0.43,-2.97 1.44,-3.9 0.98,-0.91 2.49,-1.39 4.65,-1.39l7.03 0 0 -0.58c0,-0.49 -0.13,-0.91 -0.43,-1.18 -0.28,-0.25 -0.74,-0.41 -1.4,-0.41l-10.31 0 0 -0.64z"/>
  <path class="fil2" d="M333.13 98.39c0.83,-0.92 2.07,-1.35 3.86,-1.35l7.28 0 0 4.41 -6.33 0c-0.54,0 -0.91,0.11 -1.12,0.32 -0.21,0.22 -0.31,0.59 -0.31,1.12l0 11.59 -4.53 0 0 -12.08c0,-1.78 0.35,-3.1 1.16,-4zm-16.53 3.46c-0.3,0.27 -0.43,0.69 -0.43,1.18l0 1.07 6.94 0c0.7,0 1.16,-0.13 1.42,-0.35 0.22,-0.2 0.32,-0.52 0.32,-0.93 0,-0.45 -0.12,-0.8 -0.37,-1.02 -0.26,-0.23 -0.68,-0.36 -1.28,-0.36l-5.2 0c-0.66,0 -1.12,0.16 -1.4,0.41zm-3.21 -3.28c1.03,-0.97 2.53,-1.54 4.62,-1.54l5.23 0c2.03,0 3.51,0.5 4.52,1.41 1.08,0.98 1.57,2.41 1.57,4.19 0,1.66 -0.44,2.99 -1.46,3.91 -1,0.9 -2.51,1.38 -4.66,1.38l-7.03 0 0 0.52c0,0.5 0.13,0.92 0.42,1.18 0.28,0.25 0.74,0.41 1.41,0.41l10.52 0 0 4.44 -10.52 0c-2.08,0 -3.59,-0.57 -4.61,-1.54 -1.15,-1.09 -1.66,-2.64 -1.66,-4.43l0 -5.5c0,-1.78 0.51,-3.34 1.66,-4.43zm-17.87 3.76c-0.55,0.64 -0.81,1.68 -0.81,3.17 0,1.49 0.26,2.53 0.81,3.17 0.53,0.61 1.38,0.89 2.58,0.89l6.17 0 0 -5.01c0,-1.15 -0.2,-1.95 -0.65,-2.42 -0.45,-0.47 -1.2,-0.69 -2.31,-0.69l-3.21 0c-1.2,0 -2.05,0.28 -2.58,0.89zm-3.4 -3.1c1.34,-1.48 3.29,-2.2 5.68,-2.2l4.46 0c2.14,0 3.8,0.65 4.93,1.97 1.09,1.26 1.65,3.12 1.65,5.59l0 9.3c0,2.46 -0.45,4.2 -1.54,5.36 -1.09,1.16 -2.78,1.68 -5.22,1.68l-10.25 0 0 -4.41 9.88 0c1.02,0 1.68,-0.18 2.05,-0.56 0.37,-0.39 0.52,-1.07 0.52,-2.06l0 -0.09 -6.48 0c-2.39,0 -4.33,-0.74 -5.68,-2.22 -1.27,-1.41 -1.97,-3.47 -1.97,-6.19 0,-2.71 0.7,-4.75 1.97,-6.15zm-16.01 10.79l6.79 0 0.24 -0.02 -0 -2.55 -6.97 0c-0.69,0 -1.13,0.12 -1.38,0.34 -0.21,0.19 -0.3,0.5 -0.3,0.91 0,0.43 0.11,0.78 0.35,0.98 0.25,0.21 0.66,0.33 1.27,0.33zm-5.11 -9.23l0 -3.77 10.34 0c2.08,0 3.59,0.57 4.62,1.54 1.15,1.09 1.66,2.65 1.66,4.43l0 7.58c0,1.32 -0.2,2.27 -0.82,2.93 -0.63,0.66 -1.61,0.95 -3.16,0.95l-7.55 0c-2.02,0 -3.49,-0.5 -4.49,-1.4 -1.08,-0.98 -1.57,-2.41 -1.57,-4.17 0,-1.65 0.43,-2.97 1.44,-3.9 0.98,-0.9 2.49,-1.39 4.65,-1.39l7.03 0 0 -0.58c0,-0.49 -0.13,-0.91 -0.43,-1.18 -0.28,-0.25 -0.74,-0.41 -1.4,-0.41l-10.31 0 0 -0.64zm-17.91 -2.32c0.96,-0.93 2.43,-1.45 4.49,-1.45l9.6 0 0 4.41 -9.58 0c-0.58,0 -0.97,0.1 -1.19,0.29 -0.19,0.17 -0.28,0.47 -0.28,0.9 0,0.38 0.06,0.65 0.24,0.81 0.23,0.19 0.67,0.29 1.41,0.29l3.79 0c2.42,0 3.97,0.58 4.92,1.52 0.98,0.97 1.32,2.27 1.32,3.68 0,1.68 -0.48,3.12 -1.56,4.12 -0.97,0.89 -2.4,1.42 -4.37,1.42l-10.03 0 0 -4.44 10.03 0c0.59,0 0.99,-0.08 1.21,-0.27 0.18,-0.15 0.26,-0.44 0.26,-0.86 0,-0.43 -0.09,-0.72 -0.29,-0.88 -0.25,-0.19 -0.69,-0.28 -1.36,-0.28l-3.82 0c-2.43,0 -3.97,-0.64 -4.92,-1.63 -0.97,-1.01 -1.29,-2.34 -1.29,-3.73 0,-1.63 0.44,-2.96 1.42,-3.91zm-21.58 -0.7c0.5,-0.54 1.22,-0.75 2.21,-0.75l6.67 0c2.85,0 5.01,0.69 6.48,1.96 1.54,1.34 2.3,3.29 2.3,5.75l0 9.73 -4.56 0 0 -9.73c0,-1.08 -0.3,-1.9 -0.93,-2.43 -0.67,-0.57 -1.75,-0.87 -3.29,-0.87l-5.04 0 0 13.03 -4.53 0 0 -14.28c0,-1.12 0.22,-1.88 0.7,-2.4zm-16.1 4.07c-0.3,0.27 -0.43,0.69 -0.43,1.18l0 1.07 6.94 0c0.7,0 1.16,-0.13 1.42,-0.35 0.22,-0.2 0.32,-0.52 0.32,-0.93 0,-0.45 -0.12,-0.8 -0.37,-1.02 -0.26,-0.23 -0.68,-0.36 -1.28,-0.36l-5.2 0c-0.66,0 -1.12,0.16 -1.4,0.41zm-3.21 -3.28c1.03,-0.97 2.53,-1.54 4.62,-1.54l5.23 0c2.09,0 3.6,0.52 4.6,1.49 1.02,0.98 1.49,2.38 1.49,4.11 0,1.66 -0.44,2.99 -1.46,3.91 -0.99,0.9 -2.51,1.38 -4.66,1.38l-7.03 0 0 0.52c0,0.5 0.13,0.92 0.42,1.18 0.28,0.25 0.74,0.41 1.41,0.41l10.52 0 0 4.44 -10.52 0c-2.08,0 -3.59,-0.57 -4.61,-1.54 -1.15,-1.09 -1.66,-2.64 -1.66,-4.43l0 -5.5c0,-1.78 0.51,-3.34 1.65,-4.43zm-27.09 -1.54c-0.11,0.08 -0.2,0.23 -0.27,0.4l-6.33 17.04 -5.22 0 6.71 -18.04c0.43,-1.28 1.02,-2.33 1.89,-3.07 0.89,-0.76 2.04,-1.18 3.58,-1.18 1.67,0 2.94,0.5 3.83,1.36 0.94,0.92 1.41,2.22 1.41,3.78l0 12.2c0,0.18 0.05,0.33 0.12,0.41 0.06,0.06 0.16,0.1 0.27,0.1 0.13,0 0.25,-0.04 0.33,-0.1 0.1,-0.07 0.17,-0.18 0.22,-0.33l5.02 -13.19c0.43,-1.27 1.02,-2.32 1.88,-3.06 0.89,-0.76 2.04,-1.18 3.58,-1.18 1.67,0 2.94,0.5 3.83,1.36 0.94,0.92 1.41,2.22 1.41,3.78l0 17.16 -4.93 0 0 -16.98c0,-0.2 -0.05,-0.35 -0.13,-0.44 -0.06,-0.06 -0.15,-0.11 -0.27,-0.11 -0.1,0 -0.2,0.04 -0.28,0.1 -0.1,0.08 -0.19,0.21 -0.24,0.36l-5.02 13.19c-0.43,1.27 -1.03,2.32 -1.9,3.06 -0.9,0.76 -2.06,1.18 -3.6,1.18 -1.65,0 -2.93,-0.5 -3.81,-1.37 -0.93,-0.92 -1.39,-2.23 -1.39,-3.8l0 -12.17c0,-0.19 -0.05,-0.34 -0.13,-0.43 -0.07,-0.07 -0.17,-0.12 -0.3,-0.12 -0.11,0 -0.2,0.03 -0.27,0.09z"/>
  <path class="fil1" d="M367.32 94.92c-0.09,0.06 -0.16,0.16 -0.23,0.3l-7.59 19.26 -5.9 0 8.57 -21.7c0.49,-1.23 1.2,-2.09 2.14,-2.65 0.92,-0.54 2.05,-0.78 3.39,-0.78 1.33,0 2.45,0.24 3.36,0.78 0.93,0.56 1.63,1.42 2.1,2.66l8.24 21.69 -5.92 0 -7.27 -19.26c-0.06,-0.15 -0.12,-0.25 -0.2,-0.3 -0.08,-0.05 -0.2,-0.08 -0.34,-0.08 -0.15,0 -0.27,0.03 -0.35,0.08z"/>
  <polygon class="fil1" points="346.34,113.83 346.34,89.76 351.72,89.76 351.72,114.48 346.34,114.48 "/>
  <path class="fil2" d="M549.18 43.96c-0.83,0.75 -1.2,1.87 -1.2,3.15l0 3.06 16.46 0c1.77,0 2.95,-0.35 3.66,-0.96 0.66,-0.58 0.94,-1.47 0.94,-2.59 0,-1.2 -0.34,-2.16 -1.06,-2.79 -0.7,-0.62 -1.8,-0.97 -3.33,-0.97l-11.86 0c-1.68,0 -2.85,0.41 -3.61,1.1zm-6.49 -6.56c2.22,-2.1 5.52,-3.34 10.1,-3.34l11.93 0c4.59,0 7.89,1.13 10.07,3.22 2.19,2.1 3.2,5.14 3.2,8.93 0,3.62 -0.94,6.49 -3.12,8.46 -2.15,1.95 -5.46,2.99 -10.21,2.99l-16.67 0 0 1.81c0,1.31 0.36,2.43 1.18,3.16 0.76,0.68 1.94,1.09 3.63,1.09l23.38 0 0 8.88 -23.38 0c-4.58,0 -7.88,-1.24 -10.1,-3.34 -2.49,-2.35 -3.58,-5.74 -3.58,-9.65l0 -12.56c0,-3.9 1.09,-7.29 3.58,-9.65zm-35.53 26.31l7.33 0c2.72,0 4.57,-0.58 5.72,-1.83 1.16,-1.28 1.67,-3.33 1.67,-6.25l0 -12.76 -14.71 0c-2.91,0 -5,0.74 -6.34,2.36 -1.38,1.67 -2.03,4.32 -2.03,8.1 0,3.77 0.65,6.41 2.03,8.06 1.33,1.6 3.42,2.33 6.34,2.33zm14.71 -29.65l0 -15.98 9.16 0 0 37.9c0,5.46 -1.24,9.57 -3.62,12.34 -2.46,2.86 -6.08,4.27 -10.76,4.27l-10.19 0c-5.28,0 -9.56,-1.67 -12.5,-5.06 -2.78,-3.2 -4.32,-7.93 -4.32,-14.21 0,-6.28 1.54,-11.01 4.32,-14.21 2.94,-3.39 7.22,-5.06 12.5,-5.06l15.41 0zm-48.85 11.17c-1.33,-1.62 -3.42,-2.36 -6.34,-2.36l-6.35 0c-2.95,0 -5.03,0.74 -6.36,2.36 -1.37,1.67 -2.01,4.32 -2.01,8.1 0,3.77 0.64,6.41 2,8.06 1.32,1.6 3.42,2.33 6.36,2.33l6.35 0c2.91,0 5.01,-0.73 6.34,-2.33 1.37,-1.65 2.03,-4.29 2.03,-8.06 0,-3.78 -0.65,-6.43 -2.03,-8.1zm-25.88 -6.11c2.94,-3.39 7.23,-5.06 12.5,-5.06l7.75 0c5.25,0 9.54,1.67 12.49,5.07 2.78,3.21 4.33,7.92 4.33,14.19 0,6.27 -1.55,10.99 -4.33,14.19 -2.95,3.4 -7.24,5.07 -12.49,5.07l-7.75 0c-5.28,0 -9.56,-1.67 -12.5,-5.06 -2.78,-3.2 -4.32,-7.93 -4.32,-14.21 0,-6.28 1.54,-11.01 4.32,-14.21zm-45.88 -9.05c3.78,-4.19 9.36,-6.26 16.51,-6.26l19.06 0 0 9.92 -19.06 0c-4.28,0 -7.33,1.04 -9.28,3.32 -1.99,2.32 -2.92,5.98 -2.92,11.18 0,5.17 0.91,8.81 2.89,11.12 1.94,2.27 5,3.31 9.31,3.31l19.06 0 0 9.92 -19.06 0c-7.18,0 -12.75,-2.07 -16.52,-6.24 -3.68,-4.07 -5.61,-10.1 -5.61,-18.12 0,-8.05 1.94,-14.09 5.61,-18.17zm-52.78 11.96l0 -7.96 5.02 0 0 -8.72 9.16 0 0 8.72 10.19 0 0 8.81 -10.19 0 0 16.6c0,1.83 0.3,3.03 0.94,3.72 0.62,0.67 1.66,0.94 3.17,0.94l5.94 0 0 8.46 -7.47 0c-4.05,0 -6.97,-0.85 -8.92,-3.02 -1.92,-2.14 -2.81,-5.49 -2.81,-10.53l0 -16.18 -5.02 0 0 -0.85zm-27.59 -5.08c1.76,-1.95 4.46,-2.88 8.34,-2.88l15.99 0 0 8.81 -13.82 0c-1.4,0 -2.39,0.3 -3,0.92 -0.61,0.61 -0.89,1.61 -0.89,2.98l0 25.82 -9.09 0 0 -26.94c0,-3.91 0.75,-6.78 2.49,-8.71zm-20.77 8.29c-1.33,-1.62 -3.42,-2.36 -6.33,-2.36l-6.35 0c-2.94,0 -5.03,0.74 -6.36,2.36 -1.37,1.67 -2,4.32 -2,8.1 0,3.77 0.64,6.41 2,8.06 1.32,1.6 3.42,2.33 6.36,2.33l6.35 0c2.91,0 5.01,-0.73 6.34,-2.33 1.37,-1.65 2.03,-4.29 2.03,-8.06 0,-3.78 -0.65,-6.43 -2.03,-8.1zm-25.88 -6.11c2.94,-3.39 7.22,-5.06 12.5,-5.06l7.75 0c5.25,0 9.54,1.67 12.49,5.07 2.78,3.21 4.33,7.92 4.33,14.19 0,6.27 -1.55,10.99 -4.33,14.19 -2.95,3.4 -7.24,5.07 -12.49,5.07l-7.75 0c-5.28,0 -9.56,-1.67 -12.5,-5.06 -2.78,-3.2 -4.32,-7.93 -4.32,-14.21 0,-6.28 1.54,-11.01 4.32,-14.21zm-51.91 32.63l0 -53.67 9.09 0 0 15.98 12.13 0c6.32,0 11.1,1.53 14.34,4.34 3.38,2.94 5.07,7.23 5.07,12.62l0 21.57 -9.16 0 0 -21.57c0,-2.63 -0.8,-4.7 -2.49,-6.08 -1.66,-1.35 -4.22,-2.08 -7.76,-2.08l-12.13 0 0 29.72 -9.09 0 0 -0.85zm-46.74 -44.25c2.51,-2.32 6.25,-3.69 11.44,-3.69l24.71 0 0 9.92 -24.99 0c-1.81,0 -3.12,0.45 -3.97,1.22 -0.9,0.82 -1.32,2.05 -1.32,3.52 0,1.35 0.37,2.65 1.45,3.52 0.93,0.75 2.42,1.22 4.68,1.22l11.03 0c6.69,0 10.86,1.89 13.36,4.69 2.52,2.81 3.32,6.48 3.32,10.04 0,4.42 -1.27,8.25 -4.15,10.9 -2.57,2.36 -6.39,3.76 -11.7,3.76l-27.08 0 0 -9.92 27.36 0c1.92,0 3.31,-0.48 4.22,-1.3 0.96,-0.87 1.42,-2.17 1.42,-3.71 0,-1.45 -0.4,-2.81 -1.55,-3.72 -1,-0.79 -2.6,-1.29 -5,-1.29l-10.96 0c-5.74,0 -9.59,-1.45 -12.1,-3.65 -3.25,-2.85 -4.24,-6.92 -4.24,-10.8 0,-4.34 1.25,-8.09 4.06,-10.69z"/>
  <path class="fil1" d="M368.28 103.17c0.36,-0 0.61,0.04 0.85,0.17 0.26,0.14 0.41,0.35 0.55,0.67l1.17 2.92 -6.68 0c0.39,-0.96 0.76,-1.96 1.17,-2.91 0.14,-0.32 0.3,-0.53 0.55,-0.68 0.24,-0.14 0.49,-0.18 0.85,-0.17l1.55 0z"/>
 </g>
</svg>
