<?xml version="1.0" encoding="UTF-8"?>
<!DOCTYPE svg PUBLIC "-//W3C//DTD SVG 1.1//EN" "http://www.w3.org/Graphics/SVG/1.1/DTD/svg11.dtd">
<!-- Creator: CorelDRAW 2020 (64 Bit) -->
<svg xmlns="http://www.w3.org/2000/svg" xml:space="preserve" width="44.0122mm" height="33.8059mm" version="1.1" style="shape-rendering:geometricPrecision; text-rendering:geometricPrecision; image-rendering:optimizeQuality; fill-rule:evenodd; clip-rule:evenodd"
viewBox="0 0 393.64 302.36"
 xmlns:xlink="http://www.w3.org/1999/xlink"
 xmlns:xodm="http://www.corel.com/coreldraw/odm/2003">
 <defs>
  <style type="text/css">
   <![CDATA[
    .fil2 {fill:#FEFEFE;fill-rule:nonzero}
    .fil0 {fill:#83C44C;fill-rule:nonzero}
    .fil1 {fill:#00AFEF;fill-rule:nonzero}
   ]]>
  </style>
 </defs>
 <g id="Camada_x0020_1">
  <metadata id="CorelCorpID_0Corel-Layer"/>
  <path class="fil0" d="M224.86 34.66c13.15,9.7 44.67,30.36 54.57,40.26 1.53,1.19 2.46,2.89 2.73,4.68 0.28,1.85 -0.15,3.82 -1.34,5.43l-0.12 0.16c-9.75,13.18 -19.06,25.93 -28.4,38.71 -8.83,12.09 -17.67,24.19 -25.74,35.13l-0.16 0.21c-1.19,1.5 -2.89,2.43 -4.67,2.71 -1.81,0.28 -3.71,-0.11 -5.28,-1.26 -4.81,-3.85 -9.67,-7.68 -14.5,-11.51 -1.57,-1.24 -2.54,-3 -2.82,-4.84 -0.27,-1.83 0.14,-3.76 1.33,-5.38l36.21 -49.09c0.59,-1.16 0.79,-2.11 0.65,-2.88 -0.13,-0.73 -0.59,-1.4 -1.31,-2.01l-31.22 -23.18c-1.62,-1.2 -2.61,-2.96 -2.89,-4.81 -0.28,-1.85 0.15,-3.82 1.35,-5.44l11.36 -15.35c1.2,-1.63 2.96,-2.61 4.81,-2.89 1.85,-0.28 3.82,0.15 5.45,1.34z"/>
  <path class="fil1" d="M168.79 127.39c-13.15,-9.7 -44.67,-30.36 -54.57,-40.26 -1.53,-1.19 -2.46,-2.89 -2.73,-4.68 -0.28,-1.85 0.15,-3.82 1.34,-5.43l0.11 -0.14c9.77,-13.21 19.11,-25.99 28.47,-38.81 8.81,-12.05 17.65,-24.17 25.68,-35.05l0.16 -0.21c1.19,-1.5 2.89,-2.43 4.68,-2.71 1.81,-0.28 3.71,0.11 5.28,1.26 4.81,3.85 9.67,7.68 14.5,11.51 1.57,1.24 2.54,3 2.82,4.84 0.27,1.84 -0.14,3.77 -1.33,5.38l-36.21 49.09c-0.59,1.15 -0.79,2.1 -0.65,2.88 0.13,0.74 0.62,1.42 1.38,2.06l31.15 23.13c1.62,1.2 2.61,2.96 2.89,4.81 0.28,1.86 -0.15,3.82 -1.35,5.44l-11.36 15.36c-1.2,1.62 -2.96,2.61 -4.81,2.89 -1.85,0.27 -3.82,-0.15 -5.45,-1.35z"/>
  <path class="fil2" d="M359.04 294l-6.1 -14.81 4.66 0c1.33,3.22 3.86,10.43 5.4,13.01l0.16 0.02 0.2 -0.03 0.05 -0.06 5.58 -12.94 4.73 0 -6.42 14.82c-0.38,0.87 -0.92,1.48 -1.64,1.88 -0.69,0.38 -1.52,0.54 -2.51,0.54 -1.01,0 -1.85,-0.18 -2.54,-0.56 -0.72,-0.4 -1.25,-1.01 -1.6,-1.88zm-11.74 -16.43l0 -4.27 4.42 0 0 4.89 -4.42 0 0 -0.62zm0 17.89l0 -16.26 4.39 0 0 16.89 -4.39 0 0 -0.62zm-12.68 -12.62l0 -3.65 2.13 0 0 -3.7 4.42 0 0 3.7 4.33 0 0 4.27 -4.33 0 0 6.78c0,0.71 0.1,1.16 0.33,1.4 0.21,0.22 0.59,0.31 1.15,0.31l2.79 0 0 4.12 -3.44 0c-1.8,0 -3.1,-0.39 -3.99,-1.37 -0.86,-0.96 -1.26,-2.44 -1.26,-4.64l0 -6.6 -2.13 0 0 -0.62zm-12.77 8.94l6.58 0 0.24 -0.02 -0 -2.46 -6.75 0c-0.67,0 -1.1,0.12 -1.34,0.33 -0.21,0.19 -0.29,0.49 -0.29,0.88 0,0.42 0.1,0.75 0.33,0.95 0.24,0.21 0.64,0.32 1.23,0.32zm-4.94 -8.94l0 -3.65 10.01 0c2.02,0 3.48,0.55 4.47,1.49 1.12,1.05 1.61,2.56 1.61,4.29l0 7.35c0,1.28 -0.19,2.2 -0.8,2.84 -0.61,0.64 -1.55,0.92 -3.05,0.92l-7.32 0c-1.95,0 -3.38,-0.48 -4.34,-1.36 -1.05,-0.95 -1.52,-2.33 -1.52,-4.03 0,-1.6 0.42,-2.88 1.4,-3.78 0.95,-0.88 2.41,-1.35 4.5,-1.35l6.81 0 0 -0.56c0,-0.47 -0.13,-0.88 -0.42,-1.14 -0.27,-0.25 -0.72,-0.4 -1.36,-0.4l-9.98 0 0 -0.62zm-13.24 -2.34c0.8,-0.89 2.01,-1.31 3.74,-1.31l7.05 0 0 4.27 -6.13 0c-0.52,0 -0.88,0.1 -1.09,0.31 -0.2,0.21 -0.3,0.57 -0.3,1.08l0 11.23 -4.39 0 0 -11.7c0,-1.73 0.34,-3 1.12,-3.88zm-8.82 3.86c-0.51,-0.62 -1.33,-0.9 -2.48,-0.9l-2.69 0c-1.17,0 -1.99,0.28 -2.5,0.9 -0.54,0.66 -0.79,1.73 -0.79,3.27 0,1.54 0.25,2.6 0.79,3.25 0.51,0.61 1.33,0.89 2.5,0.89l2.69 0c1.15,0 1.98,-0.28 2.49,-0.89 0.54,-0.65 0.8,-1.72 0.8,-3.25 0,-1.54 -0.26,-2.61 -0.8,-3.27zm-10.98 -2.94c1.3,-1.5 3.19,-2.24 5.51,-2.24l3.29 0c2.31,0 4.2,0.74 5.5,2.24 1.22,1.41 1.91,3.47 1.91,6.2 0,2.73 -0.68,4.79 -1.91,6.2 -1.3,1.5 -3.2,2.24 -5.5,2.24l-3.29 0c-2.32,0 -4.21,-0.74 -5.51,-2.24 -1.22,-1.41 -1.9,-3.47 -1.9,-6.21 0,-2.74 0.68,-4.8 1.9,-6.21zm-16.71 2.73c-0.45,0.49 -0.64,1.31 -0.64,2.5l0 5.12 5.98 0c1.17,0 1.99,-0.28 2.5,-0.89 0.54,-0.65 0.79,-1.72 0.79,-3.25 0,-1.54 -0.25,-2.61 -0.79,-3.27 -0.51,-0.62 -1.33,-0.9 -2.49,-0.9l-3.08 0c-1.09,0 -1.83,0.22 -2.26,0.69zm-3.44 -3.06c1.09,-1.27 2.7,-1.9 4.78,-1.9l4.32 0c2.31,0 4.19,0.74 5.48,2.24 1.22,1.41 1.9,3.47 1.9,6.2 0,2.73 -0.68,4.79 -1.9,6.2 -1.3,1.5 -3.18,2.24 -5.48,2.24l-6.31 0 0 6.28 -4.39 0 0 -15.85c0,-2.39 0.54,-4.19 1.59,-5.42zm-13.97 -0.59c0.8,-0.89 2.01,-1.31 3.74,-1.31l7.05 0 0 4.27 -6.13 0c-0.52,0 -0.88,0.1 -1.08,0.31 -0.2,0.21 -0.3,0.57 -0.3,1.08l0 11.23 -4.39 0 0 -11.7c0,-1.73 0.34,-3 1.12,-3.88zm-8.82 3.86c-0.51,-0.62 -1.33,-0.9 -2.48,-0.9l-2.7 0c-1.16,0 -1.99,0.28 -2.49,0.9 -0.54,0.66 -0.79,1.73 -0.79,3.27 0,1.54 0.25,2.6 0.79,3.25 0.5,0.61 1.33,0.89 2.5,0.89l2.7 0c1.15,0 1.98,-0.28 2.49,-0.89 0.54,-0.65 0.8,-1.72 0.8,-3.25 0,-1.54 -0.26,-2.61 -0.8,-3.27zm-10.98 -2.94c1.3,-1.5 3.19,-2.24 5.5,-2.24l3.29 0c2.31,0 4.2,0.74 5.5,2.24 1.22,1.41 1.91,3.47 1.91,6.2 0,2.73 -0.68,4.79 -1.91,6.2 -1.3,1.5 -3.2,2.24 -5.5,2.24l-3.29 0c-2.32,0 -4.2,-0.74 -5.5,-2.24 -1.22,-1.41 -1.9,-3.47 -1.9,-6.21 0,-2.73 0.68,-4.8 1.9,-6.21zm-19.47 -3.84c1.66,-1.84 4.09,-2.75 7.21,-2.75l8.35 0 0 4.74 -8.35 0c-1.74,0 -2.97,0.41 -3.74,1.32 -0.8,0.93 -1.18,2.43 -1.18,4.57 0,2.13 0.37,3.62 1.16,4.55 0.77,0.9 2,1.31 3.75,1.31l8.35 0 0 4.74 -8.35 0c-3.12,0 -5.55,-0.91 -7.21,-2.74 -1.61,-1.78 -2.45,-4.4 -2.45,-7.87 0,-3.49 0.85,-6.11 2.45,-7.89zm170.1 14.19l6.58 0 0.24 -0.02 -0 -2.46 -6.75 0c-0.67,0 -1.1,0.12 -1.34,0.33 -0.2,0.18 -0.29,0.49 -0.29,0.88 0,0.42 0.1,0.75 0.33,0.95 0.24,0.2 0.64,0.32 1.23,0.32zm-4.95 -8.94l0 -3.65 10.01 0c2.02,0 3.48,0.55 4.47,1.49 1.12,1.06 1.6,2.56 1.6,4.29l0 7.35c0,1.28 -0.19,2.2 -0.8,2.84 -0.61,0.64 -1.56,0.92 -3.06,0.92l-7.32 0c-1.96,0 -3.38,-0.48 -4.35,-1.36 -1.05,-0.95 -1.52,-2.33 -1.52,-4.03 0,-1.6 0.42,-2.88 1.4,-3.78 0.95,-0.88 2.41,-1.35 4.5,-1.35l6.81 0 0 -0.56c0,-0.47 -0.13,-0.88 -0.42,-1.14 -0.27,-0.25 -0.72,-0.4 -1.36,-0.4l-9.98 0 0 -0.62z"/>
  <path class="fil2" d="M156.49 280.5c0.8,-0.89 2.01,-1.31 3.74,-1.31l7.05 0 0 4.27 -6.13 0c-0.52,0 -0.88,0.1 -1.08,0.31 -0.2,0.21 -0.3,0.57 -0.3,1.08l0 11.23 -4.39 0 0 -11.7c0,-1.73 0.34,-3 1.12,-3.88zm-16.01 3.35c-0.29,0.26 -0.42,0.67 -0.42,1.14l0 1.03 6.72 0c0.68,0 1.13,-0.12 1.38,-0.34 0.21,-0.19 0.31,-0.5 0.31,-0.9 0,-0.43 -0.11,-0.78 -0.36,-0.99 -0.25,-0.22 -0.66,-0.34 -1.24,-0.34l-5.03 0c-0.64,0 -1.08,0.15 -1.36,0.39zm-3.11 -3.17c0.99,-0.94 2.45,-1.49 4.47,-1.49l5.06 0c1.96,0 3.4,0.48 4.37,1.36 1.04,0.95 1.52,2.33 1.52,4.06 0,1.61 -0.43,2.89 -1.41,3.79 -0.96,0.87 -2.43,1.34 -4.51,1.34l-6.81 0 0 0.5c0,0.48 0.13,0.89 0.41,1.14 0.27,0.25 0.72,0.39 1.36,0.39l10.19 0 0 4.3 -10.19 0c-2.02,0 -3.48,-0.56 -4.47,-1.49 -1.12,-1.05 -1.61,-2.56 -1.61,-4.29l0 -5.33c0,-1.73 0.49,-3.23 1.6,-4.29zm-17.31 3.64c-0.53,0.62 -0.79,1.63 -0.79,3.07 0,1.44 0.25,2.45 0.79,3.07 0.51,0.59 1.34,0.86 2.5,0.86l5.98 0 0 -4.85c0,-1.11 -0.19,-1.89 -0.63,-2.35 -0.43,-0.46 -1.16,-0.67 -2.24,-0.67l-3.11 0c-1.16,0 -1.99,0.27 -2.5,0.86zm-3.3 -3c1.3,-1.43 3.18,-2.13 5.5,-2.13l4.32 0c2.07,0 3.68,0.63 4.77,1.91 1.05,1.23 1.6,3.02 1.6,5.41l0 9c0,2.38 -0.44,4.07 -1.49,5.19 -1.06,1.13 -2.69,1.63 -5.06,1.63l-9.92 0 0 -4.27 9.57 0c0.99,0 1.63,-0.17 1.98,-0.55 0.36,-0.38 0.5,-1.04 0.5,-2l0 -0.09 -6.28 0c-2.31,0 -4.2,-0.71 -5.5,-2.15 -1.23,-1.36 -1.91,-3.36 -1.91,-5.99 0,-2.62 0.68,-4.6 1.91,-5.95zm-15.5 10.45l6.58 0 0.24 -0.02 -0 -2.46 -6.75 0c-0.67,0 -1.1,0.12 -1.33,0.33 -0.2,0.18 -0.29,0.49 -0.29,0.88 0,0.42 0.1,0.75 0.33,0.95 0.24,0.21 0.64,0.32 1.23,0.32zm-4.95 -8.94l0 -3.65 10.01 0c2.02,0 3.48,0.55 4.47,1.49 1.12,1.06 1.61,2.56 1.61,4.29l0 7.35c0,1.28 -0.19,2.2 -0.8,2.84 -0.61,0.64 -1.56,0.92 -3.06,0.92l-7.32 0c-1.96,0 -3.38,-0.48 -4.35,-1.36 -1.05,-0.95 -1.52,-2.33 -1.52,-4.03 0,-1.6 0.42,-2.88 1.4,-3.78 0.95,-0.87 2.41,-1.35 4.5,-1.35l6.81 0 0 -0.56c0,-0.47 -0.13,-0.88 -0.42,-1.14 -0.27,-0.25 -0.72,-0.4 -1.36,-0.4l-9.98 0 0 -0.62zm-17.35 -2.25c0.93,-0.9 2.35,-1.4 4.34,-1.4l9.3 0 0 4.27 -9.27 0c-0.56,0 -0.94,0.09 -1.15,0.28 -0.19,0.16 -0.27,0.46 -0.27,0.87 0,0.36 0.06,0.63 0.23,0.78 0.22,0.19 0.65,0.28 1.36,0.28l3.67 0c2.34,0 3.84,0.57 4.77,1.48 0.95,0.94 1.28,2.19 1.28,3.56 0,1.63 -0.46,3.02 -1.51,3.99 -0.94,0.87 -2.32,1.37 -4.24,1.37l-9.72 0 0 -4.3 9.72 0c0.58,0 0.96,-0.08 1.17,-0.26 0.17,-0.15 0.25,-0.43 0.25,-0.84 0,-0.42 -0.09,-0.7 -0.28,-0.85 -0.24,-0.19 -0.67,-0.27 -1.32,-0.27l-3.7 0c-2.35,0 -3.85,-0.62 -4.77,-1.57 -0.94,-0.98 -1.25,-2.27 -1.25,-3.61 0,-1.57 0.42,-2.87 1.37,-3.79zm-20.9 -0.67c0.49,-0.52 1.18,-0.73 2.14,-0.73l6.46 0c2.76,0 4.85,0.66 6.27,1.9 1.49,1.3 2.23,3.19 2.23,5.57l0 9.42 -4.42 0 0 -9.42c0,-1.04 -0.29,-1.84 -0.9,-2.36 -0.65,-0.55 -1.7,-0.84 -3.18,-0.84l-4.88 0 0 12.62 -4.39 0 0 -13.83c0,-1.08 0.21,-1.83 0.68,-2.33zm-15.6 3.94c-0.29,0.26 -0.42,0.67 -0.42,1.14l0 1.03 6.72 0c0.68,0 1.13,-0.12 1.38,-0.34 0.22,-0.19 0.31,-0.5 0.31,-0.9 0,-0.43 -0.11,-0.78 -0.36,-0.99 -0.25,-0.22 -0.66,-0.34 -1.24,-0.34l-5.04 0c-0.64,0 -1.08,0.15 -1.36,0.39zm-3.11 -3.17c0.99,-0.94 2.45,-1.49 4.47,-1.49l5.06 0c2.02,0 3.48,0.51 4.46,1.44 0.99,0.95 1.44,2.3 1.44,3.98 0,1.61 -0.43,2.89 -1.41,3.79 -0.96,0.87 -2.43,1.34 -4.51,1.34l-6.81 0 0 0.5c0,0.48 0.13,0.89 0.41,1.14 0.27,0.25 0.72,0.39 1.36,0.39l10.19 0 0 4.3 -10.19 0c-2.01,0 -3.48,-0.56 -4.47,-1.49 -1.12,-1.05 -1.61,-2.56 -1.61,-4.29l0 -5.33c0,-1.73 0.49,-3.23 1.6,-4.29zm-26.24 -1.49c-0.1,0.08 -0.19,0.22 -0.26,0.39l-6.13 16.5 -5.06 0 6.5 -17.47c0.42,-1.24 0.99,-2.26 1.83,-2.98 0.86,-0.74 1.98,-1.15 3.47,-1.15 1.61,0 2.85,0.48 3.71,1.32 0.91,0.89 1.36,2.15 1.36,3.66l0 11.82c0,0.18 0.04,0.32 0.12,0.4 0.06,0.06 0.15,0.1 0.26,0.1 0.13,0 0.24,-0.04 0.32,-0.1 0.09,-0.07 0.17,-0.18 0.22,-0.31l4.86 -12.78c0.42,-1.23 0.99,-2.24 1.82,-2.96 0.86,-0.74 1.98,-1.15 3.47,-1.15 1.61,0 2.85,0.48 3.71,1.32 0.91,0.89 1.36,2.15 1.36,3.66l0 16.62 -4.77 0 0 -16.44c0,-0.19 -0.05,-0.34 -0.12,-0.43 -0.06,-0.06 -0.15,-0.1 -0.26,-0.1 -0.1,0 -0.2,0.04 -0.27,0.1 -0.1,0.08 -0.19,0.2 -0.24,0.35l-4.86 12.78c-0.42,1.23 -0.99,2.25 -1.84,2.96 -0.87,0.74 -1.99,1.15 -3.48,1.15 -1.6,0 -2.84,-0.48 -3.69,-1.33 -0.9,-0.89 -1.35,-2.16 -1.35,-3.68l0 -11.79c0,-0.19 -0.05,-0.33 -0.12,-0.42 -0.06,-0.07 -0.17,-0.11 -0.29,-0.11 -0.1,0 -0.19,0.03 -0.26,0.08z"/>
  <path class="fil1" d="M189.61 277.14c-0.08,0.06 -0.16,0.16 -0.22,0.3l-7.35 18.65 -5.71 0 8.3 -21.02c0.47,-1.19 1.16,-2.03 2.07,-2.56 0.89,-0.53 1.98,-0.76 3.28,-0.76 1.28,0 2.37,0.23 3.25,0.76 0.9,0.54 1.58,1.37 2.04,2.57l7.98 21.01 -5.73 0 -7.04 -18.66c-0.05,-0.14 -0.12,-0.24 -0.2,-0.29 -0.08,-0.05 -0.19,-0.07 -0.33,-0.07 -0.15,0 -0.26,0.03 -0.34,0.08z"/>
  <polygon class="fil1" points="169.29,295.46 169.29,272.14 174.5,272.14 174.5,296.08 169.29,296.08 "/>
  <path class="fil2" d="M365.74 227.79c-0.8,0.72 -1.16,1.81 -1.16,3.05l0 2.96 15.94 0c1.71,0 2.86,-0.33 3.54,-0.93 0.64,-0.56 0.91,-1.42 0.91,-2.5 0,-1.16 -0.33,-2.09 -1.02,-2.71 -0.68,-0.6 -1.74,-0.94 -3.23,-0.94l-11.49 0c-1.62,0 -2.76,0.4 -3.5,1.06zm-6.29 -6.35c2.15,-2.03 5.35,-3.24 9.78,-3.24l11.56 0c4.45,0 7.64,1.1 9.75,3.12 2.12,2.04 3.1,4.98 3.1,8.65 0,3.51 -0.91,6.28 -3.02,8.2 -2.08,1.89 -5.29,2.89 -9.89,2.89l-16.14 0 0 1.75c0,1.27 0.35,2.35 1.14,3.06 0.73,0.66 1.88,1.05 3.51,1.05l22.65 0 0 8.6 -22.65 0c-4.44,0 -7.64,-1.2 -9.78,-3.24 -2.41,-2.28 -3.47,-5.56 -3.47,-9.34l0 -12.16c0,-3.78 1.06,-7.06 3.47,-9.34zm-34.41 25.48l7.1 0c2.63,0 4.43,-0.56 5.54,-1.78 1.13,-1.24 1.62,-3.22 1.62,-6.06l0 -12.36 -14.25 0c-2.82,0 -4.85,0.72 -6.14,2.28 -1.33,1.62 -1.97,4.19 -1.97,7.85 0,3.65 0.63,6.21 1.96,7.81 1.29,1.55 3.32,2.25 6.14,2.25zm14.25 -28.72l0 -15.47 8.87 0 0 36.7c0,5.29 -1.2,9.27 -3.5,11.95 -2.38,2.77 -5.89,4.14 -10.43,4.14l-9.87 0c-5.11,0 -9.26,-1.62 -12.11,-4.9 -2.69,-3.1 -4.19,-7.68 -4.19,-13.76 0,-6.08 1.49,-10.66 4.19,-13.76 2.85,-3.28 7,-4.9 12.11,-4.9l14.93 0zm-47.31 10.81c-1.29,-1.57 -3.32,-2.28 -6.14,-2.28l-6.15 0c-2.85,0 -4.88,0.72 -6.16,2.28 -1.32,1.62 -1.94,4.19 -1.94,7.85 0,3.65 0.62,6.21 1.94,7.81 1.28,1.55 3.31,2.25 6.16,2.25l6.15 0c2.82,0 4.85,-0.7 6.14,-2.25 1.33,-1.6 1.96,-4.15 1.96,-7.81 0,-3.66 -0.63,-6.23 -1.96,-7.85zm-25.07 -5.92c2.85,-3.28 7,-4.9 12.11,-4.9l7.5 0c5.09,0 9.24,1.62 12.1,4.91 2.69,3.1 4.2,7.67 4.2,13.75 0,6.07 -1.51,10.64 -4.2,13.75 -2.86,3.29 -7.01,4.91 -12.1,4.91l-7.5 0c-5.11,0 -9.26,-1.62 -12.11,-4.9 -2.69,-3.1 -4.19,-7.68 -4.19,-13.76 0,-6.08 1.49,-10.66 4.19,-13.76zm-44.43 -8.77c3.66,-4.06 9.06,-6.06 15.99,-6.06l18.46 0 0 9.61 -18.46 0c-4.14,0 -7.1,1.01 -8.99,3.22 -1.92,2.25 -2.83,5.79 -2.83,10.83 0,5 0.89,8.53 2.8,10.77 1.88,2.2 4.84,3.21 9.01,3.21l18.46 0 0 9.61 -18.46 0c-6.95,0 -12.35,-2 -16,-6.04 -3.57,-3.94 -5.43,-9.78 -5.43,-17.55 0,-7.79 1.88,-13.65 5.43,-17.59zm-51.12 11.58l0 -7.71 4.87 0 0 -8.45 8.87 0 0 8.45 9.87 0 0 8.53 -9.87 0 0 16.08c0,1.78 0.29,2.93 0.91,3.61 0.6,0.65 1.61,0.91 3.07,0.91l5.75 0 0 8.19 -7.24 0c-3.92,0 -6.75,-0.82 -8.64,-2.92 -1.86,-2.07 -2.72,-5.32 -2.72,-10.19l0 -15.67 -4.87 0 0 -0.82zm-26.72 -4.92c1.7,-1.89 4.32,-2.79 8.08,-2.79l15.48 0 0 8.53 -13.39 0c-1.36,0 -2.32,0.29 -2.91,0.89 -0.59,0.59 -0.87,1.56 -0.87,2.89l0 25.01 -8.8 0 0 -26.09c0,-3.79 0.72,-6.57 2.41,-8.44zm-20.12 8.02c-1.29,-1.57 -3.31,-2.28 -6.13,-2.28l-6.15 0c-2.85,0 -4.88,0.72 -6.16,2.28 -1.33,1.62 -1.94,4.19 -1.94,7.85 0,3.65 0.62,6.21 1.94,7.81 1.28,1.55 3.31,2.25 6.16,2.25l6.15 0c2.82,0 4.85,-0.7 6.14,-2.25 1.33,-1.6 1.96,-4.15 1.96,-7.81 0,-3.66 -0.63,-6.23 -1.97,-7.85zm-25.07 -5.92c2.85,-3.28 7,-4.9 12.11,-4.9l7.5 0c5.08,0 9.24,1.62 12.1,4.91 2.69,3.1 4.2,7.67 4.2,13.75 0,6.07 -1.5,10.64 -4.2,13.75 -2.86,3.29 -7.01,4.91 -12.1,4.91l-7.5 0c-5.11,0 -9.26,-1.62 -12.11,-4.9 -2.69,-3.1 -4.19,-7.68 -4.19,-13.76 0,-6.08 1.49,-10.66 4.19,-13.76zm-50.27 31.6l0 -51.97 8.8 0 0 15.47 11.75 0c6.12,0 10.75,1.48 13.89,4.2 3.28,2.85 4.91,7 4.91,12.22l0 20.89 -8.87 0 0 -20.89c0,-2.55 -0.77,-4.56 -2.41,-5.89 -1.61,-1.3 -4.09,-2.01 -7.52,-2.01l-11.75 0 0 28.79 -8.8 0 0 -0.82zm-45.26 -42.86c2.44,-2.25 6.06,-3.58 11.08,-3.58l23.93 0 0 9.61 -24.2 0c-1.76,0 -3.02,0.44 -3.85,1.18 -0.87,0.79 -1.28,1.98 -1.28,3.41 0,1.3 0.36,2.57 1.41,3.4 0.9,0.72 2.34,1.18 4.53,1.18l10.68 0c6.48,0 10.51,1.83 12.94,4.54 2.44,2.72 3.22,6.27 3.22,9.73 0,4.28 -1.23,7.99 -4.02,10.56 -2.49,2.29 -6.19,3.64 -11.33,3.64l-26.23 0 0 -9.61 26.5 0c1.86,0 3.2,-0.47 4.09,-1.26 0.93,-0.84 1.38,-2.1 1.38,-3.59 0,-1.4 -0.39,-2.72 -1.5,-3.61 -0.97,-0.77 -2.51,-1.25 -4.84,-1.25l-10.61 0c-5.56,0 -9.28,-1.4 -11.72,-3.54 -3.14,-2.76 -4.1,-6.7 -4.1,-10.46 0,-4.2 1.21,-7.84 3.93,-10.35z"/>
  <path class="fil1" d="M190.54 285.12c0.35,-0 0.59,0.03 0.82,0.17 0.25,0.14 0.39,0.34 0.54,0.65l1.13 2.83 -6.47 0c0.37,-0.93 0.74,-1.9 1.13,-2.82 0.14,-0.31 0.29,-0.52 0.54,-0.66 0.23,-0.13 0.48,-0.17 0.82,-0.17l1.5 0z"/>
 </g>
</svg>
